<svg xmlns="http://www.w3.org/2000/svg" xmlns:xlink="http://www.w3.org/1999/xlink" width="820" height="238.81"><rect width="820" height="238.81" rx="0" ry="0" class="a"/><svg height="238.81" viewBox="0 0 82 23.881" width="820" xmlns="http://www.w3.org/2000/svg" xmlns:xlink="http://www.w3.org/1999/xlink"><style>@keyframes j{0%{transform:translateX(0)}3.03%{transform:translateX(-82px)}3.23%{transform:translateX(-410px)}5.99%{transform:translateX(-492px)}6.28%{transform:translateX(-574px)}6.58%{transform:translateX(-656px)}8.02%{transform:translateX(-738px)}8.82%{transform:translateX(-820px)}9.67%{transform:translateX(-902px)}10.2%{transform:translateX(-984px)}11.3%{transform:translateX(-1066px)}13.98%{transform:translateX(-1148px)}14.67%{transform:translateX(-1230px)}15.62%{transform:translateX(-1312px)}16.41%{transform:translateX(-1394px)}17.17%{transform:translateX(-1476px)}18.25%{transform:translateX(-1558px)}20.18%{transform:translateX(-1640px)}20.68%{transform:translateX(-1722px)}21.28%{transform:translateX(-1804px)}22.17%{transform:translateX(-1886px)}22.72%{transform:translateX(-2050px)}22.77%{transform:translateX(-2132px)}24.86%{transform:translateX(-2214px)}24.87%{transform:translateX(-2296px)}25.43%{transform:translateX(-2378px)}25.65%{transform:translateX(-2460px)}25.87%{transform:translateX(-2542px)}26.12%{transform:translateX(-2624px)}26.34%{transform:translateX(-2706px)}26.58%{transform:translateX(-2788px)}26.81%{transform:translateX(-2870px)}27.03%{transform:translateX(-2952px)}27.04%{transform:translateX(-3116px)}27.05%{transform:translateX(-3198px)}27.1%{transform:translateX(-3280px)}27.32%{transform:translateX(-3608px)}30.16%{transform:translateX(-3690px)}30.75%{transform:translateX(-3772px)}31.4%{transform:translateX(-3854px)}32.14%{transform:translateX(-3936px)}33.49%{transform:translateX(-4018px)}35.42%{transform:translateX(-4100px)}35.97%{transform:translateX(-4182px)}36.31%{transform:translateX(-4264px)}37.26%{transform:translateX(-4346px)}38.05%{transform:translateX(-4510px)}38.09%{transform:translateX(-4592px)}38.75%{transform:translateX(-4756px)}38.76%{transform:translateX(-5002px)}38.77%{transform:translateX(-5084px)}38.95%{transform:translateX(-5166px)}38.96%{transform:translateX(-5494px)}43.81%{transform:translateX(-5576px)}44.46%{transform:translateX(-5658px)}45%{transform:translateX(-5740px)}45.7%{transform:translateX(-5822px)}47.09%{transform:translateX(-5904px)}48.97%{transform:translateX(-5986px)}49.52%{transform:translateX(-6068px)}50.02%{transform:translateX(-6150px)}50.95%{transform:translateX(-6232px)}51.65%{transform:translateX(-6314px)}53.77%{transform:translateX(-7216px)}55.43%{transform:translateX(-7380px)}55.47%{transform:translateX(-7462px)}56.38%{transform:translateX(-7544px)}56.4%{transform:translateX(-7626px)}56.57%{transform:translateX(-7954px)}62.77%{transform:translateX(-8036px)}63.37%{transform:translateX(-8118px)}64.04%{transform:translateX(-8200px)}64.76%{transform:translateX(-8282px)}65.65%{transform:translateX(-8364px)}67.39%{transform:translateX(-8446px)}68.53%{transform:translateX(-8528px)}68.93%{transform:translateX(-8610px)}69.82%{transform:translateX(-8692px)}70.72%{transform:translateX(-8774px)}72.58%{transform:translateX(-9594px)}72.59%{transform:translateX(-9758px)}75.68%{transform:translateX(-9840px)}76.67%{transform:translateX(-9922px)}79.65%{transform:translateX(-10004px)}80.39%{transform:translateX(-10086px)}80.99%{transform:translateX(-10168px)}81.54%{transform:translateX(-10250px)}82.53%{transform:translateX(-10332px)}84.52%{transform:translateX(-10414px)}84.56%{transform:translateX(-10496px)}85.71%{transform:translateX(-10578px)}85.73%{transform:translateX(-10660px)}85.9%{transform:translateX(-11152px)}to{transform:translateX(-11234px)}}.a{fill:#282a36}.c{fill:#ff6ac1}.d{fill:#eff0eb}.e{fill:#686868}.f{fill:#57c7ff}.g{fill:#b9c0cb}</style><g font-size="1.67" font-family="Monaco,Consolas,Menlo,'Bitstream Vera Sans Mono','Powerline Symbols',monospace"><defs><symbol id="1"><text y="1.67" class="c">❯</text></symbol><symbol id="2"><text y="1.67" class="c">❯</text><text x="2.004" y="1.67" class="d">npm</text></symbol><symbol id="3"><text y="1.67" class="c">❯</text><text x="2.004" y="1.67" class="d">npm</text><text x="6.012" y="1.67" class="d">i</text></symbol><symbol id="4"><text y="1.67" class="c">❯</text><text x="2.004" y="1.67" class="d">npm</text><text x="6.012" y="1.67" class="d">i</text><text x="8.016" y="1.67" class="d">-g</text></symbol><symbol id="5"><text y="1.67" class="c">❯</text><text x="2.004" y="1.67" class="d">npm</text><text x="6.012" y="1.67" class="d">i</text><text x="8.016" y="1.67" class="d">-g</text><text x="11.022" y="1.67" class="d">album-art</text></symbol><symbol id="6"><text y="1.67" class="d">⸨</text><text x="1.002" y="1.67" class="e">░░░░░░░░░░░░░░░░░░</text><text x="19.038" y="1.67" class="d">⸩</text><text x="21.042" y="1.67" class="d">⠧</text><text x="23.046" y="1.67" class="d">rollbackFailedOptional:</text>0<text x="47.094" y="1.67" class="f">verb</text><text x="52.104" y="1.67" class="c">npm-session</text><text x="64.128" y="1.67" class="d">4f9cc3250c2924a6</text></symbol><symbol id="7"><text y="1.67" class="d">⸨</text><path class="g" d="M1.002 0h7v2.171h-7z"/><text x="1.002" y="1.67" class="a"></text><text x="8.016" y="1.67" class="e">░░░░░░░░░░░</text><text x="19.038" y="1.67" class="d">⸩</text><text x="21.042" y="1.67" class="d">⠼</text><text x="23.046" y="1.67" class="d">extract:album-art:</text>0<text x="42.084" y="1.67" class="f">verb</text><text x="47.094" y="1.67" class="c">lock</text><text x="52.104" y="1.67" class="d">using</text><text x="58.116" y="1.67" class="d">/Users/tmorrow/.npm/_lo</text></symbol><symbol id="8"><text y="1.67" class="d">/usr/local/bin/album-art</text><text x="25.05" y="1.67" class="d">-&gt;</text><text x="28.056" y="1.67" class="d">/usr/local/lib/node_modules/album-art/cli.js</text></symbol><symbol id="9"><text y="1.67" class="d">+</text><text x="2.004" y="1.67" class="d">album-art@1.0.4</text></symbol><symbol id="10"><text y="1.67" class="d">added</text><text x="6.012" y="1.67" class="d">1</text><text x="8.016" y="1.67" class="d">package</text><text x="16.032" y="1.67" class="d">in</text><text x="19.038" y="1.67" class="d">0.509s</text></symbol><symbol id="11"><text y="1.67" class="c">❯</text><text x="2.004" y="1.67" class="d">a</text></symbol><symbol id="12"><text y="1.67" class="c">❯</text><text x="2.004" y="1.67" class="d">al</text></symbol><symbol id="13"><text y="1.67" class="c">❯</text><text x="2.004" y="1.67" class="d">alb</text></symbol><symbol id="14"><text y="1.67" class="c">❯</text><text x="2.004" y="1.67" class="d">albu</text></symbol><symbol id="15"><text y="1.67" class="c">❯</text><text x="2.004" y="1.67" class="d">album</text></symbol><symbol id="16"><text y="1.67" class="c">❯</text><text x="2.004" y="1.67" class="d">album-</text></symbol><symbol id="17"><text y="1.67" class="c">❯</text><text x="2.004" y="1.67" class="d">album-a</text></symbol><symbol id="18"><text y="1.67" class="c">❯</text><text x="2.004" y="1.67" class="d">album-ar</text></symbol><symbol id="19"><text y="1.67" class="c">❯</text><text x="2.004" y="1.67" class="d">album-art</text></symbol><symbol id="20"><text y="1.67" class="d">Get</text><text x="4.008" y="1.67" class="d">an</text><text x="7.014" y="1.67" class="d">album</text><text x="13.026" y="1.67" class="d">or</text><text x="16.032" y="1.67" class="d">artist</text><text x="23.046" y="1.67" class="d">image</text><text x="29.058" y="1.67" class="d">url</text><text x="33.066" y="1.67" class="d">in</text><text x="36.072" y="1.67" class="d">node:</text><text x="42.084" y="1.67" class="d">The</text><text x="46.092" y="1.67" class="d">Beatles</text><text x="54.108" y="1.67" class="d">➔</text><text x="56.112" y="1.67" class="d">http://path/to/beatles.jpg</text></symbol><symbol id="21"><text y="1.67" class="d">Usage</text></symbol><symbol id="22"><text x="2.004" y="1.67" class="d">$</text><text x="4.008" y="1.67" class="d">album-art</text><text x="14.028" y="1.67" class="d">artist</text><text x="21.042" y="1.67" class="d">[album]</text><text x="29.058" y="1.67" class="d">[small|medium|large|extralarge|mega]</text></symbol><symbol id="23"><text y="1.67" class="d">Example</text></symbol><symbol id="24"><text x="2.004" y="1.67" class="d">$</text><text x="4.008" y="1.67" class="d">album-art</text><text x="14.028" y="1.67" class="d">&apos;The</text><text x="19.038" y="1.67" class="d">Beatles&apos;</text><text x="28.056" y="1.67" class="d">&apos;White</text><text x="35.07" y="1.67" class="d">Album&apos;</text></symbol><symbol id="25"><text x="2.004" y="1.67" class="d">http://path/to/beatles/album.jpg</text></symbol><symbol id="26"><text y="1.67" class="c">❯</text><text x="2.004" y="1.67" class="d">album-art</text><text x="12.024" y="1.67" class="d">&apos;</text></symbol><symbol id="27"><text y="1.67" class="c">❯</text><text x="2.004" y="1.67" class="d">album-art</text><text x="12.024" y="1.67" class="d">&apos;T</text></symbol><symbol id="28"><text y="1.67" class="c">❯</text><text x="2.004" y="1.67" class="d">album-art</text><text x="12.024" y="1.67" class="d">&apos;Th</text></symbol><symbol id="29"><text y="1.67" class="c">❯</text><text x="2.004" y="1.67" class="d">album-art</text><text x="12.024" y="1.67" class="d">&apos;The</text></symbol><symbol id="30"><text y="1.67" class="c">❯</text><text x="2.004" y="1.67" class="d">album-art</text><text x="12.024" y="1.67" class="d">&apos;The</text><text x="17.034" y="1.67" class="d">B</text></symbol><symbol id="31"><text y="1.67" class="c">❯</text><text x="2.004" y="1.67" class="d">album-art</text><text x="12.024" y="1.67" class="d">&apos;The</text><text x="17.034" y="1.67" class="d">Be</text></symbol><symbol id="32"><text y="1.67" class="c">❯</text><text x="2.004" y="1.67" class="d">album-art</text><text x="12.024" y="1.67" class="d">&apos;The</text><text x="17.034" y="1.67" class="d">Bea</text></symbol><symbol id="33"><text y="1.67" class="c">❯</text><text x="2.004" y="1.67" class="d">album-art</text><text x="12.024" y="1.67" class="d">&apos;The</text><text x="17.034" y="1.67" class="d">Beat</text></symbol><symbol id="34"><text y="1.67" class="c">❯</text><text x="2.004" y="1.67" class="d">album-art</text><text x="12.024" y="1.67" class="d">&apos;The</text><text x="17.034" y="1.67" class="d">Beatles</text></symbol><symbol id="35"><text y="1.67" class="c">❯</text><text x="2.004" y="1.67" class="d">album-art</text><text x="12.024" y="1.67" class="d">&apos;The</text><text x="17.034" y="1.67" class="d">Beatles&apos;</text></symbol><symbol id="36"><text y="1.67" class="d">https://lastfm-img2.akamaized.net/i/u/300x300/ae581dbdf6894612a99d5169e14ea5b1.png</text></symbol><symbol id="37"><text y="1.67" class="c">❯</text><text x="2.004" y="1.67" class="d">album-art</text><text x="12.024" y="1.67" class="d">&apos;The</text><text x="17.034" y="1.67" class="d">Beatles&apos;</text><text x="26.052" y="1.67" class="d">&apos;help&apos;</text></symbol><symbol id="38"><text y="1.67" class="d">https://lastfm-img2.akamaized.net/i/u/300x300/23c5e3b982d441d690315efa25844ddd.png</text></symbol><symbol id="a"><path fill="transparent" d="M0 0h82v11H0z"/></symbol><symbol id="b"><path fill="#97979b" d="M0 0h1.102v2.171H0z"/></symbol></defs><path class="a" d="M0 0h82v23.881H0z"/><g style="animation-duration:22.664345000000004s;animation-iteration-count:infinite;animation-name:j;animation-timing-function:steps(1,end)"><svg width="11316"><svg><use xlink:href="#a"/><use xlink:href="#b" x="-.004"/></svg><svg x="82"><use xlink:href="#a"/><use xlink:href="#b" x="-.004"/></svg><svg x="164"><use xlink:href="#a"/><use xlink:href="#b" x="-.004" y="4.317"/></svg><svg x="246"><use xlink:href="#a"/><use xlink:href="#b" x="-.004" y="4.317"/></svg><svg x="328"><use xlink:href="#a"/><use xlink:href="#b" x="1.996" y="4.317"/><use xlink:href="#1" y="4.342"/></svg><svg x="410"><use xlink:href="#a"/><use xlink:href="#b" x="1.996" y="4.317"/><use xlink:href="#1" y="4.342"/></svg><svg x="492"><use xlink:href="#a"/><use xlink:href="#b" x="2.996" y="4.317"/><text y="6.012" class="c">❯</text><text x="2.004" y="6.012" class="d">n</text></svg><svg x="574"><use xlink:href="#a"/><use xlink:href="#b" x="3.996" y="4.317"/><text y="6.012" class="c">❯</text><text x="2.004" y="6.012" class="d">np</text></svg><svg x="656"><use xlink:href="#a"/><use xlink:href="#b" x="4.996" y="4.317"/><use xlink:href="#2" y="4.342"/></svg><svg x="738"><use xlink:href="#a"/><use xlink:href="#b" x="5.996" y="4.317"/><use xlink:href="#2" y="4.342"/></svg><svg x="820"><use xlink:href="#a"/><use xlink:href="#b" x="6.996" y="4.317"/><use xlink:href="#3" y="4.342"/></svg><svg x="902"><use xlink:href="#a"/><use xlink:href="#b" x="7.996" y="4.317"/><use xlink:href="#3" y="4.342"/></svg><svg x="984"><use xlink:href="#a"/><use xlink:href="#b" x="8.996" y="4.317"/><text y="6.012" class="c">❯</text><text x="2.004" y="6.012" class="d">npm</text><text x="6.012" y="6.012" class="d">i</text><text x="8.016" y="6.012" class="d">-</text></svg><svg x="1066"><use xlink:href="#a"/><use xlink:href="#b" x="9.996" y="4.317"/><use xlink:href="#4" y="4.342"/></svg><svg x="1148"><use xlink:href="#a"/><use xlink:href="#b" x="10.996" y="4.317"/><use xlink:href="#4" y="4.342"/></svg><svg x="1230"><use xlink:href="#a"/><use xlink:href="#b" x="11.996" y="4.317"/><text y="6.012" class="c">❯</text><text x="2.004" y="6.012" class="d">npm</text><text x="6.012" y="6.012" class="d">i</text><text x="8.016" y="6.012" class="d">-g</text><text x="11.022" y="6.012" class="d">a</text></svg><svg x="1312"><use xlink:href="#a"/><use xlink:href="#b" x="12.996" y="4.317"/><text y="6.012" class="c">❯</text><text x="2.004" y="6.012" class="d">npm</text><text x="6.012" y="6.012" class="d">i</text><text x="8.016" y="6.012" class="d">-g</text><text x="11.022" y="6.012" class="d">al</text></svg><svg x="1394"><use xlink:href="#a"/><use xlink:href="#b" x="13.996" y="4.317"/><text y="6.012" class="c">❯</text><text x="2.004" y="6.012" class="d">npm</text><text x="6.012" y="6.012" class="d">i</text><text x="8.016" y="6.012" class="d">-g</text><text x="11.022" y="6.012" class="d">alb</text></svg><svg x="1476"><use xlink:href="#a"/><use xlink:href="#b" x="14.996" y="4.317"/><text y="6.012" class="c">❯</text><text x="2.004" y="6.012" class="d">npm</text><text x="6.012" y="6.012" class="d">i</text><text x="8.016" y="6.012" class="d">-g</text><text x="11.022" y="6.012" class="d">albu</text></svg><svg x="1558"><use xlink:href="#a"/><use xlink:href="#b" x="15.996" y="4.317"/><text y="6.012" class="c">❯</text><text x="2.004" y="6.012" class="d">npm</text><text x="6.012" y="6.012" class="d">i</text><text x="8.016" y="6.012" class="d">-g</text><text x="11.022" y="6.012" class="d">album</text></svg><svg x="1640"><use xlink:href="#a"/><use xlink:href="#b" x="16.996" y="4.317"/><text y="6.012" class="c">❯</text><text x="2.004" y="6.012" class="d">npm</text><text x="6.012" y="6.012" class="d">i</text><text x="8.016" y="6.012" class="d">-g</text><text x="11.022" y="6.012" class="d">album-</text></svg><svg x="1722"><use xlink:href="#a"/><use xlink:href="#b" x="17.996" y="4.317"/><text y="6.012" class="c">❯</text><text x="2.004" y="6.012" class="d">npm</text><text x="6.012" y="6.012" class="d">i</text><text x="8.016" y="6.012" class="d">-g</text><text x="11.022" y="6.012" class="d">album-a</text></svg><svg x="1804"><use xlink:href="#a"/><use xlink:href="#b" x="18.996" y="4.317"/><text y="6.012" class="c">❯</text><text x="2.004" y="6.012" class="d">npm</text><text x="6.012" y="6.012" class="d">i</text><text x="8.016" y="6.012" class="d">-g</text><text x="11.022" y="6.012" class="d">album-ar</text></svg><svg x="1886"><use xlink:href="#a"/><use xlink:href="#b" x="19.996" y="4.317"/><use xlink:href="#5" y="4.342"/></svg><svg x="1968"><use xlink:href="#a"/><use xlink:href="#b" x="19.996" y="4.317"/><use xlink:href="#5" y="4.342"/></svg><svg x="2050"><use xlink:href="#a"/><use xlink:href="#b" x="-.004" y="6.488"/><use xlink:href="#5" y="4.342"/></svg><svg x="2132"><use xlink:href="#a"/><use xlink:href="#b" x="-.004" y="6.488"/><use xlink:href="#5" y="4.342"/></svg><svg x="2214"><use xlink:href="#a"/><use xlink:href="#5" y="4.342"/></svg><svg x="2296"><use xlink:href="#a"/><use xlink:href="#5" y="4.342"/><use xlink:href="#6" y="6.513"/></svg><svg x="2378"><use xlink:href="#a"/><use xlink:href="#5" y="4.342"/><use xlink:href="#6" y="6.513"/></svg><svg x="2460"><use xlink:href="#a"/><use xlink:href="#5" y="4.342"/><use xlink:href="#6" y="6.513"/></svg><svg x="2542"><use xlink:href="#a"/><use xlink:href="#5" y="4.342"/><text y="8.183" class="d">⸨</text><path class="g" d="M1.002 6.513h7v2.171h-7z"/><text x="1.002" y="8.183" class="a"></text><text x="8.016" y="8.183" class="e">░░░░░░░░░░░</text><text x="19.038" y="8.183" class="d">⸩</text><text x="21.042" y="8.183" class="d">⠙</text><text x="23.046" y="8.183" class="d">postinstall:</text><path class="g" d="M36.072 6.513h4v2.171h-4z"/><text x="36.072" y="8.183" class="a">sill</text><text x="41.082" y="8.183" class="c">install</text><text x="49.098" y="8.183" class="d">executeActions</text></svg><svg x="2624"><use xlink:href="#a"/><use xlink:href="#5" y="4.342"/><use xlink:href="#7" y="6.513"/></svg><svg x="2706"><use xlink:href="#a"/><use xlink:href="#5" y="4.342"/><use xlink:href="#7" y="6.513"/></svg><svg x="2788"><use xlink:href="#a"/><use xlink:href="#5" y="4.342"/><use xlink:href="#7" y="6.513"/></svg><svg x="2870"><use xlink:href="#a"/><use xlink:href="#5" y="4.342"/><use xlink:href="#7" y="6.513"/></svg><svg x="2952"><use xlink:href="#a"/><use xlink:href="#5" y="4.342"/><text y="8.183" class="d">⸨</text><path class="g" d="M1.002 6.513h12v2.171h-12z"/><text x="1.002" y="8.183" class="a"></text><text x="13.026" y="8.183" class="e">░░░░░░</text><text x="19.038" y="8.183" class="d">⸩</text><text x="21.042" y="8.183" class="d">⠼</text><text x="23.046" y="8.183" class="d">build:album-art:</text><path class="g" d="M40.08 6.513h4v2.171h-4z"/><text x="40.08" y="8.183" class="a">sill</text><text x="45.09" y="8.183" class="c">doSerial</text><text x="54.108" y="8.183" class="d">build</text><text x="60.12" y="8.183" class="d">8</text></svg><svg x="3034"><use xlink:href="#a"/><use xlink:href="#b" x="-.004" y="6.488"/><use xlink:href="#5" y="4.342"/></svg><svg x="3116"><use xlink:href="#a"/><use xlink:href="#b" x="-.004" y="8.659"/><use xlink:href="#5" y="4.342"/><use xlink:href="#8" y="6.513"/></svg><svg x="3198"><use xlink:href="#a"/><use xlink:href="#b" x="-.004" y="13.001"/><use xlink:href="#5" y="4.342"/><use xlink:href="#8" y="6.513"/><use xlink:href="#9" y="8.684"/><use xlink:href="#10" y="10.855"/></svg><svg x="3280"><use xlink:href="#a"/><use xlink:href="#b" x="-.004" y="13.001"/><use xlink:href="#5" y="4.342"/><use xlink:href="#8" y="6.513"/><use xlink:href="#9" y="8.684"/><use xlink:href="#10" y="10.855"/></svg><svg x="3362"><use xlink:href="#a"/><use xlink:href="#b" x="-.004" y="17.343"/><use xlink:href="#5" y="4.342"/><use xlink:href="#8" y="6.513"/><use xlink:href="#9" y="8.684"/><use xlink:href="#10" y="10.855"/></svg><svg x="3444"><use xlink:href="#a"/><use xlink:href="#b" x="-.004" y="17.343"/><use xlink:href="#5" y="4.342"/><use xlink:href="#8" y="6.513"/><use xlink:href="#9" y="8.684"/><use xlink:href="#10" y="10.855"/></svg><svg x="3526"><use xlink:href="#a"/><use xlink:href="#b" x="-.004" y="17.343"/><use xlink:href="#5" y="4.342"/><use xlink:href="#8" y="6.513"/><use xlink:href="#9" y="8.684"/><use xlink:href="#10" y="10.855"/></svg><svg x="3608"><use xlink:href="#a"/><use xlink:href="#b" x="1.996" y="17.343"/><use xlink:href="#5" y="4.342"/><use xlink:href="#8" y="6.513"/><use xlink:href="#9" y="8.684"/><use xlink:href="#10" y="10.855"/><use xlink:href="#1" y="17.368"/></svg><svg x="3690"><use xlink:href="#a"/><use xlink:href="#b" x="2.996" y="17.343"/><use xlink:href="#5" y="4.342"/><use xlink:href="#8" y="6.513"/><use xlink:href="#9" y="8.684"/><use xlink:href="#10" y="10.855"/><use xlink:href="#11" y="17.368"/></svg><svg x="3772"><use xlink:href="#a"/><use xlink:href="#b" x="3.996" y="17.343"/><use xlink:href="#5" y="4.342"/><use xlink:href="#8" y="6.513"/><use xlink:href="#9" y="8.684"/><use xlink:href="#10" y="10.855"/><use xlink:href="#12" y="17.368"/></svg><svg x="3854"><use xlink:href="#a"/><use xlink:href="#b" x="4.996" y="17.343"/><use xlink:href="#5" y="4.342"/><use xlink:href="#8" y="6.513"/><use xlink:href="#9" y="8.684"/><use xlink:href="#10" y="10.855"/><use xlink:href="#13" y="17.368"/></svg><svg x="3936"><use xlink:href="#a"/><use xlink:href="#b" x="5.996" y="17.343"/><use xlink:href="#5" y="4.342"/><use xlink:href="#8" y="6.513"/><use xlink:href="#9" y="8.684"/><use xlink:href="#10" y="10.855"/><use xlink:href="#14" y="17.368"/></svg><svg x="4018"><use xlink:href="#a"/><use xlink:href="#b" x="6.996" y="17.343"/><use xlink:href="#5" y="4.342"/><use xlink:href="#8" y="6.513"/><use xlink:href="#9" y="8.684"/><use xlink:href="#10" y="10.855"/><use xlink:href="#15" y="17.368"/></svg><svg x="4100"><use xlink:href="#a"/><use xlink:href="#b" x="7.996" y="17.343"/><use xlink:href="#5" y="4.342"/><use xlink:href="#8" y="6.513"/><use xlink:href="#9" y="8.684"/><use xlink:href="#10" y="10.855"/><use xlink:href="#16" y="17.368"/></svg><svg x="4182"><use xlink:href="#a"/><use xlink:href="#b" x="8.996" y="17.343"/><use xlink:href="#5" y="4.342"/><use xlink:href="#8" y="6.513"/><use xlink:href="#9" y="8.684"/><use xlink:href="#10" y="10.855"/><use xlink:href="#17" y="17.368"/></svg><svg x="4264"><use xlink:href="#a"/><use xlink:href="#b" x="9.996" y="17.343"/><use xlink:href="#5" y="4.342"/><use xlink:href="#8" y="6.513"/><use xlink:href="#9" y="8.684"/><use xlink:href="#10" y="10.855"/><use xlink:href="#18" y="17.368"/></svg><svg x="4346"><use xlink:href="#a"/><use xlink:href="#b" x="10.996" y="17.343"/><use xlink:href="#5" y="4.342"/><use xlink:href="#8" y="6.513"/><use xlink:href="#9" y="8.684"/><use xlink:href="#10" y="10.855"/><use xlink:href="#19" y="17.368"/></svg><svg x="4428"><use xlink:href="#a"/><use xlink:href="#b" x="10.996" y="17.343"/><use xlink:href="#5" y="4.342"/><use xlink:href="#8" y="6.513"/><use xlink:href="#9" y="8.684"/><use xlink:href="#10" y="10.855"/><use xlink:href="#19" y="17.368"/></svg><svg x="4510"><use xlink:href="#a"/><use xlink:href="#b" x="-.004" y="19.514"/><use xlink:href="#5" y="4.342"/><use xlink:href="#8" y="6.513"/><use xlink:href="#9" y="8.684"/><use xlink:href="#10" y="10.855"/><use xlink:href="#19" y="17.368"/></svg><svg x="4592"><use xlink:href="#a"/><use xlink:href="#b" x="-.004" y="19.514"/><use xlink:href="#5" y="4.342"/><use xlink:href="#8" y="6.513"/><use xlink:href="#9" y="8.684"/><use xlink:href="#10" y="10.855"/><use xlink:href="#19" y="17.368"/></svg><svg x="4674"><use xlink:href="#a"/><use xlink:href="#b" x="-.004" y="21.685"/><use xlink:href="#5" y="4.342"/><use xlink:href="#8" y="6.513"/><use xlink:href="#9" y="8.684"/><use xlink:href="#10" y="10.855"/><use xlink:href="#19" y="17.368"/><use xlink:href="#20" y="19.539"/></svg><svg x="4756"><use xlink:href="#a"/><use xlink:href="#b" x="-.004" y="21.685"/><use xlink:href="#5"/><use xlink:href="#8" y="2.171"/><use xlink:href="#9" y="4.342"/><use xlink:href="#10" y="6.513"/><use xlink:href="#19" y="13.026"/><use xlink:href="#20" y="15.197"/><use xlink:href="#21" y="19.539"/></svg><svg x="4838"><use xlink:href="#a"/><use xlink:href="#b" x="-.004" y="21.685"/><use xlink:href="#9"/><use xlink:href="#10" y="2.171"/><use xlink:href="#19" y="8.684"/><use xlink:href="#20" y="10.855"/><use xlink:href="#21" y="15.197"/><use xlink:href="#22" y="17.368"/></svg><svg x="4920"><use xlink:href="#a"/><use xlink:href="#b" x="-.004" y="21.685"/><use xlink:href="#19" y="4.342"/><use xlink:href="#20" y="6.513"/><use xlink:href="#21" y="10.855"/><use xlink:href="#22" y="13.026"/><use xlink:href="#23" y="17.368"/><use xlink:href="#24" y="19.539"/></svg><svg x="5002"><use xlink:href="#a"/><use xlink:href="#b" x="-.004" y="21.685"/><use xlink:href="#19" y="2.171"/><use xlink:href="#20" y="4.342"/><use xlink:href="#21" y="8.684"/><use xlink:href="#22" y="10.855"/><use xlink:href="#23" y="15.197"/><use xlink:href="#24" y="17.368"/><use xlink:href="#25" y="19.539"/></svg><svg x="5084"><use xlink:href="#a"/><use xlink:href="#b" x="-.004" y="21.685"/><use xlink:href="#19" y="2.171"/><use xlink:href="#20" y="4.342"/><use xlink:href="#21" y="8.684"/><use xlink:href="#22" y="10.855"/><use xlink:href="#23" y="15.197"/><use xlink:href="#24" y="17.368"/><use xlink:href="#25" y="19.539"/></svg><svg x="5166"><use xlink:href="#a"/><use xlink:href="#b" x="-.004" y="21.685"/><use xlink:href="#20"/><use xlink:href="#21" y="4.342"/><use xlink:href="#22" y="6.513"/><use xlink:href="#23" y="10.855"/><use xlink:href="#24" y="13.026"/><use xlink:href="#25" y="15.197"/></svg><svg x="5248"><use xlink:href="#a"/><use xlink:href="#b" x="-.004" y="21.685"/><use xlink:href="#20"/><use xlink:href="#21" y="4.342"/><use xlink:href="#22" y="6.513"/><use xlink:href="#23" y="10.855"/><use xlink:href="#24" y="13.026"/><use xlink:href="#25" y="15.197"/></svg><svg x="5330"><use xlink:href="#a"/><use xlink:href="#b" x="-.004" y="21.685"/><use xlink:href="#20"/><use xlink:href="#21" y="4.342"/><use xlink:href="#22" y="6.513"/><use xlink:href="#23" y="10.855"/><use xlink:href="#24" y="13.026"/><use xlink:href="#25" y="15.197"/></svg><svg x="5412"><use xlink:href="#a"/><use xlink:href="#b" x="1.996" y="21.685"/><use xlink:href="#20"/><use xlink:href="#21" y="4.342"/><use xlink:href="#22" y="6.513"/><use xlink:href="#23" y="10.855"/><use xlink:href="#24" y="13.026"/><use xlink:href="#25" y="15.197"/><use xlink:href="#1" y="21.71"/></svg><svg x="5494"><use xlink:href="#a"/><use xlink:href="#b" x="1.996" y="21.685"/><use xlink:href="#20"/><use xlink:href="#21" y="4.342"/><use xlink:href="#22" y="6.513"/><use xlink:href="#23" y="10.855"/><use xlink:href="#24" y="13.026"/><use xlink:href="#25" y="15.197"/><use xlink:href="#1" y="21.71"/></svg><svg x="5576"><use xlink:href="#a"/><use xlink:href="#b" x="2.996" y="21.685"/><use xlink:href="#20"/><use xlink:href="#21" y="4.342"/><use xlink:href="#22" y="6.513"/><use xlink:href="#23" y="10.855"/><use xlink:href="#24" y="13.026"/><use xlink:href="#25" y="15.197"/><use xlink:href="#11" y="21.71"/></svg><svg x="5658"><use xlink:href="#a"/><use xlink:href="#b" x="3.996" y="21.685"/><use xlink:href="#20"/><use xlink:href="#21" y="4.342"/><use xlink:href="#22" y="6.513"/><use xlink:href="#23" y="10.855"/><use xlink:href="#24" y="13.026"/><use xlink:href="#25" y="15.197"/><use xlink:href="#12" y="21.71"/></svg><svg x="5740"><use xlink:href="#a"/><use xlink:href="#b" x="4.996" y="21.685"/><use xlink:href="#20"/><use xlink:href="#21" y="4.342"/><use xlink:href="#22" y="6.513"/><use xlink:href="#23" y="10.855"/><use xlink:href="#24" y="13.026"/><use xlink:href="#25" y="15.197"/><use xlink:href="#13" y="21.71"/></svg><svg x="5822"><use xlink:href="#a"/><use xlink:href="#b" x="5.996" y="21.685"/><use xlink:href="#20"/><use xlink:href="#21" y="4.342"/><use xlink:href="#22" y="6.513"/><use xlink:href="#23" y="10.855"/><use xlink:href="#24" y="13.026"/><use xlink:href="#25" y="15.197"/><use xlink:href="#14" y="21.71"/></svg><svg x="5904"><use xlink:href="#a"/><use xlink:href="#b" x="6.996" y="21.685"/><use xlink:href="#20"/><use xlink:href="#21" y="4.342"/><use xlink:href="#22" y="6.513"/><use xlink:href="#23" y="10.855"/><use xlink:href="#24" y="13.026"/><use xlink:href="#25" y="15.197"/><use xlink:href="#15" y="21.71"/></svg><svg x="5986"><use xlink:href="#a"/><use xlink:href="#b" x="7.996" y="21.685"/><use xlink:href="#20"/><use xlink:href="#21" y="4.342"/><use xlink:href="#22" y="6.513"/><use xlink:href="#23" y="10.855"/><use xlink:href="#24" y="13.026"/><use xlink:href="#25" y="15.197"/><use xlink:href="#16" y="21.71"/></svg><svg x="6068"><use xlink:href="#a"/><use xlink:href="#b" x="8.996" y="21.685"/><use xlink:href="#20"/><use xlink:href="#21" y="4.342"/><use xlink:href="#22" y="6.513"/><use xlink:href="#23" y="10.855"/><use xlink:href="#24" y="13.026"/><use xlink:href="#25" y="15.197"/><use xlink:href="#17" y="21.71"/></svg><svg x="6150"><use xlink:href="#a"/><use xlink:href="#b" x="9.996" y="21.685"/><use xlink:href="#20"/><use xlink:href="#21" y="4.342"/><use xlink:href="#22" y="6.513"/><use xlink:href="#23" y="10.855"/><use xlink:href="#24" y="13.026"/><use xlink:href="#25" y="15.197"/><use xlink:href="#18" y="21.71"/></svg><svg x="6232"><use xlink:href="#a"/><use xlink:href="#b" x="10.996" y="21.685"/><use xlink:href="#20"/><use xlink:href="#21" y="4.342"/><use xlink:href="#22" y="6.513"/><use xlink:href="#23" y="10.855"/><use xlink:href="#24" y="13.026"/><use xlink:href="#25" y="15.197"/><use xlink:href="#19" y="21.71"/></svg><svg x="6314"><use xlink:href="#a"/><use xlink:href="#b" x="11.996" y="21.685"/><use xlink:href="#20"/><use xlink:href="#21" y="4.342"/><use xlink:href="#22" y="6.513"/><use xlink:href="#23" y="10.855"/><use xlink:href="#24" y="13.026"/><use xlink:href="#25" y="15.197"/><use xlink:href="#19" y="21.71"/></svg><svg x="6396"><use xlink:href="#a"/><use xlink:href="#b" x="12.996" y="21.685"/><use xlink:href="#20"/><use xlink:href="#21" y="4.342"/><use xlink:href="#22" y="6.513"/><use xlink:href="#23" y="10.855"/><use xlink:href="#24" y="13.026"/><use xlink:href="#25" y="15.197"/><use xlink:href="#26" y="21.71"/></svg><svg x="6478"><use xlink:href="#a"/><use xlink:href="#b" x="13.996" y="21.685"/><use xlink:href="#20"/><use xlink:href="#21" y="4.342"/><use xlink:href="#22" y="6.513"/><use xlink:href="#23" y="10.855"/><use xlink:href="#24" y="13.026"/><use xlink:href="#25" y="15.197"/><use xlink:href="#27" y="21.71"/></svg><svg x="6560"><use xlink:href="#a"/><use xlink:href="#b" x="14.996" y="21.685"/><use xlink:href="#20"/><use xlink:href="#21" y="4.342"/><use xlink:href="#22" y="6.513"/><use xlink:href="#23" y="10.855"/><use xlink:href="#24" y="13.026"/><use xlink:href="#25" y="15.197"/><use xlink:href="#28" y="21.71"/></svg><svg x="6642"><use xlink:href="#a"/><use xlink:href="#b" x="15.996" y="21.685"/><use xlink:href="#20"/><use xlink:href="#21" y="4.342"/><use xlink:href="#22" y="6.513"/><use xlink:href="#23" y="10.855"/><use xlink:href="#24" y="13.026"/><use xlink:href="#25" y="15.197"/><use xlink:href="#29" y="21.71"/></svg><svg x="6724"><use xlink:href="#a"/><use xlink:href="#b" x="16.996" y="21.685"/><use xlink:href="#20"/><use xlink:href="#21" y="4.342"/><use xlink:href="#22" y="6.513"/><use xlink:href="#23" y="10.855"/><use xlink:href="#24" y="13.026"/><use xlink:href="#25" y="15.197"/><use xlink:href="#29" y="21.71"/></svg><svg x="6806"><use xlink:href="#a"/><use xlink:href="#b" x="17.996" y="21.685"/><use xlink:href="#20"/><use xlink:href="#21" y="4.342"/><use xlink:href="#22" y="6.513"/><use xlink:href="#23" y="10.855"/><use xlink:href="#24" y="13.026"/><use xlink:href="#25" y="15.197"/><use xlink:href="#30" y="21.71"/></svg><svg x="6888"><use xlink:href="#a"/><use xlink:href="#b" x="18.996" y="21.685"/><use xlink:href="#20"/><use xlink:href="#21" y="4.342"/><use xlink:href="#22" y="6.513"/><use xlink:href="#23" y="10.855"/><use xlink:href="#24" y="13.026"/><use xlink:href="#25" y="15.197"/><use xlink:href="#31" y="21.71"/></svg><svg x="6970"><use xlink:href="#a"/><use xlink:href="#b" x="19.996" y="21.685"/><use xlink:href="#20"/><use xlink:href="#21" y="4.342"/><use xlink:href="#22" y="6.513"/><use xlink:href="#23" y="10.855"/><use xlink:href="#24" y="13.026"/><use xlink:href="#25" y="15.197"/><use xlink:href="#32" y="21.71"/></svg><svg x="7052"><use xlink:href="#a"/><use xlink:href="#b" x="20.996" y="21.685"/><use xlink:href="#20"/><use xlink:href="#21" y="4.342"/><use xlink:href="#22" y="6.513"/><use xlink:href="#23" y="10.855"/><use xlink:href="#24" y="13.026"/><use xlink:href="#25" y="15.197"/><use xlink:href="#33" y="21.71"/></svg><svg x="7134"><use xlink:href="#a"/><use xlink:href="#b" x="23.996" y="21.685"/><use xlink:href="#20"/><use xlink:href="#21" y="4.342"/><use xlink:href="#22" y="6.513"/><use xlink:href="#23" y="10.855"/><use xlink:href="#24" y="13.026"/><use xlink:href="#25" y="15.197"/><use xlink:href="#34" y="21.71"/></svg><svg x="7216"><use xlink:href="#a"/><use xlink:href="#b" x="24.996" y="21.685"/><use xlink:href="#20"/><use xlink:href="#21" y="4.342"/><use xlink:href="#22" y="6.513"/><use xlink:href="#23" y="10.855"/><use xlink:href="#24" y="13.026"/><use xlink:href="#25" y="15.197"/><use xlink:href="#35" y="21.71"/></svg><svg x="7298"><use xlink:href="#a"/><use xlink:href="#b" x="24.996" y="21.685"/><use xlink:href="#20"/><use xlink:href="#21" y="4.342"/><use xlink:href="#22" y="6.513"/><use xlink:href="#23" y="10.855"/><use xlink:href="#24" y="13.026"/><use xlink:href="#25" y="15.197"/><use xlink:href="#35" y="21.71"/></svg><svg x="7380"><use xlink:href="#a"/><use xlink:href="#b" x="-.004" y="21.685"/><use xlink:href="#21" y="2.171"/><use xlink:href="#22" y="4.342"/><use xlink:href="#23" y="8.684"/><use xlink:href="#24" y="10.855"/><use xlink:href="#25" y="13.026"/><use xlink:href="#35" y="19.539"/></svg><svg x="7462"><use xlink:href="#a"/><use xlink:href="#b" x="-.004" y="21.685"/><use xlink:href="#21" y="2.171"/><use xlink:href="#22" y="4.342"/><use xlink:href="#23" y="8.684"/><use xlink:href="#24" y="10.855"/><use xlink:href="#25" y="13.026"/><use xlink:href="#35" y="19.539"/></svg><svg x="7544"><use xlink:href="#a"/><use xlink:href="#b" x="-.004" y="21.685"/><use xlink:href="#21"/><use xlink:href="#22" y="2.171"/><use xlink:href="#23" y="6.513"/><use xlink:href="#24" y="8.684"/><use xlink:href="#25" y="10.855"/><use xlink:href="#35" y="17.368"/><use xlink:href="#36" y="19.539"/></svg><svg x="7626"><use xlink:href="#a"/><use xlink:href="#b" x="-.004" y="21.685"/><use xlink:href="#21"/><use xlink:href="#22" y="2.171"/><use xlink:href="#23" y="6.513"/><use xlink:href="#24" y="8.684"/><use xlink:href="#25" y="10.855"/><use xlink:href="#35" y="17.368"/><use xlink:href="#36" y="19.539"/></svg><svg x="7708"><use xlink:href="#a"/><use xlink:href="#b" x="-.004" y="21.685"/><use xlink:href="#23" y="2.171"/><use xlink:href="#24" y="4.342"/><use xlink:href="#25" y="6.513"/><use xlink:href="#35" y="13.026"/><use xlink:href="#36" y="15.197"/></svg><svg x="7790"><use xlink:href="#a"/><use xlink:href="#b" x="-.004" y="21.685"/><use xlink:href="#23" y="2.171"/><use xlink:href="#24" y="4.342"/><use xlink:href="#25" y="6.513"/><use xlink:href="#35" y="13.026"/><use xlink:href="#36" y="15.197"/></svg><svg x="7872"><use xlink:href="#a"/><use xlink:href="#b" x="1.996" y="21.685"/><use xlink:href="#23" y="2.171"/><use xlink:href="#24" y="4.342"/><use xlink:href="#25" y="6.513"/><use xlink:href="#35" y="13.026"/><use xlink:href="#36" y="15.197"/><use xlink:href="#1" y="21.71"/></svg><svg x="7954"><use xlink:href="#a"/><use xlink:href="#b" x="1.996" y="21.685"/><use xlink:href="#23" y="2.171"/><use xlink:href="#24" y="4.342"/><use xlink:href="#25" y="6.513"/><use xlink:href="#35" y="13.026"/><use xlink:href="#36" y="15.197"/><use xlink:href="#1" y="21.71"/></svg><svg x="8036"><use xlink:href="#a"/><use xlink:href="#b" x="2.996" y="21.685"/><use xlink:href="#23" y="2.171"/><use xlink:href="#24" y="4.342"/><use xlink:href="#25" y="6.513"/><use xlink:href="#35" y="13.026"/><use xlink:href="#36" y="15.197"/><use xlink:href="#11" y="21.71"/></svg><svg x="8118"><use xlink:href="#a"/><use xlink:href="#b" x="3.996" y="21.685"/><use xlink:href="#23" y="2.171"/><use xlink:href="#24" y="4.342"/><use xlink:href="#25" y="6.513"/><use xlink:href="#35" y="13.026"/><use xlink:href="#36" y="15.197"/><use xlink:href="#12" y="21.71"/></svg><svg x="8200"><use xlink:href="#a"/><use xlink:href="#b" x="4.996" y="21.685"/><use xlink:href="#23" y="2.171"/><use xlink:href="#24" y="4.342"/><use xlink:href="#25" y="6.513"/><use xlink:href="#35" y="13.026"/><use xlink:href="#36" y="15.197"/><use xlink:href="#13" y="21.71"/></svg><svg x="8282"><use xlink:href="#a"/><use xlink:href="#b" x="5.996" y="21.685"/><use xlink:href="#23" y="2.171"/><use xlink:href="#24" y="4.342"/><use xlink:href="#25" y="6.513"/><use xlink:href="#35" y="13.026"/><use xlink:href="#36" y="15.197"/><use xlink:href="#14" y="21.71"/></svg><svg x="8364"><use xlink:href="#a"/><use xlink:href="#b" x="6.996" y="21.685"/><use xlink:href="#23" y="2.171"/><use xlink:href="#24" y="4.342"/><use xlink:href="#25" y="6.513"/><use xlink:href="#35" y="13.026"/><use xlink:href="#36" y="15.197"/><use xlink:href="#15" y="21.71"/></svg><svg x="8446"><use xlink:href="#a"/><use xlink:href="#b" x="7.996" y="21.685"/><use xlink:href="#23" y="2.171"/><use xlink:href="#24" y="4.342"/><use xlink:href="#25" y="6.513"/><use xlink:href="#35" y="13.026"/><use xlink:href="#36" y="15.197"/><use xlink:href="#16" y="21.71"/></svg><svg x="8528"><use xlink:href="#a"/><use xlink:href="#b" x="8.996" y="21.685"/><use xlink:href="#23" y="2.171"/><use xlink:href="#24" y="4.342"/><use xlink:href="#25" y="6.513"/><use xlink:href="#35" y="13.026"/><use xlink:href="#36" y="15.197"/><use xlink:href="#17" y="21.71"/></svg><svg x="8610"><use xlink:href="#a"/><use xlink:href="#b" x="9.996" y="21.685"/><use xlink:href="#23" y="2.171"/><use xlink:href="#24" y="4.342"/><use xlink:href="#25" y="6.513"/><use xlink:href="#35" y="13.026"/><use xlink:href="#36" y="15.197"/><use xlink:href="#18" y="21.71"/></svg><svg x="8692"><use xlink:href="#a"/><use xlink:href="#b" x="10.996" y="21.685"/><use xlink:href="#23" y="2.171"/><use xlink:href="#24" y="4.342"/><use xlink:href="#25" y="6.513"/><use xlink:href="#35" y="13.026"/><use xlink:href="#36" y="15.197"/><use xlink:href="#19" y="21.71"/></svg><svg x="8774"><use xlink:href="#a"/><use xlink:href="#b" x="11.996" y="21.685"/><use xlink:href="#23" y="2.171"/><use xlink:href="#24" y="4.342"/><use xlink:href="#25" y="6.513"/><use xlink:href="#35" y="13.026"/><use xlink:href="#36" y="15.197"/><use xlink:href="#19" y="21.71"/></svg><svg x="8856"><use xlink:href="#a"/><use xlink:href="#b" x="12.996" y="21.685"/><use xlink:href="#23" y="2.171"/><use xlink:href="#24" y="4.342"/><use xlink:href="#25" y="6.513"/><use xlink:href="#35" y="13.026"/><use xlink:href="#36" y="15.197"/><use xlink:href="#26" y="21.71"/></svg><svg x="8938"><use xlink:href="#a"/><use xlink:href="#b" x="13.996" y="21.685"/><use xlink:href="#23" y="2.171"/><use xlink:href="#24" y="4.342"/><use xlink:href="#25" y="6.513"/><use xlink:href="#35" y="13.026"/><use xlink:href="#36" y="15.197"/><use xlink:href="#27" y="21.71"/></svg><svg x="9020"><use xlink:href="#a"/><use xlink:href="#b" x="14.996" y="21.685"/><use xlink:href="#23" y="2.171"/><use xlink:href="#24" y="4.342"/><use xlink:href="#25" y="6.513"/><use xlink:href="#35" y="13.026"/><use xlink:href="#36" y="15.197"/><use xlink:href="#28" y="21.71"/></svg><svg x="9102"><use xlink:href="#a"/><use xlink:href="#b" x="15.996" y="21.685"/><use xlink:href="#23" y="2.171"/><use xlink:href="#24" y="4.342"/><use xlink:href="#25" y="6.513"/><use xlink:href="#35" y="13.026"/><use xlink:href="#36" y="15.197"/><use xlink:href="#29" y="21.71"/></svg><svg x="9184"><use xlink:href="#a"/><use xlink:href="#b" x="16.996" y="21.685"/><use xlink:href="#23" y="2.171"/><use xlink:href="#24" y="4.342"/><use xlink:href="#25" y="6.513"/><use xlink:href="#35" y="13.026"/><use xlink:href="#36" y="15.197"/><use xlink:href="#29" y="21.71"/></svg><svg x="9266"><use xlink:href="#a"/><use xlink:href="#b" x="17.996" y="21.685"/><use xlink:href="#23" y="2.171"/><use xlink:href="#24" y="4.342"/><use xlink:href="#25" y="6.513"/><use xlink:href="#35" y="13.026"/><use xlink:href="#36" y="15.197"/><use xlink:href="#30" y="21.71"/></svg><svg x="9348"><use xlink:href="#a"/><use xlink:href="#b" x="18.996" y="21.685"/><use xlink:href="#23" y="2.171"/><use xlink:href="#24" y="4.342"/><use xlink:href="#25" y="6.513"/><use xlink:href="#35" y="13.026"/><use xlink:href="#36" y="15.197"/><use xlink:href="#31" y="21.71"/></svg><svg x="9430"><use xlink:href="#a"/><use xlink:href="#b" x="19.996" y="21.685"/><use xlink:href="#23" y="2.171"/><use xlink:href="#24" y="4.342"/><use xlink:href="#25" y="6.513"/><use xlink:href="#35" y="13.026"/><use xlink:href="#36" y="15.197"/><use xlink:href="#32" y="21.71"/></svg><svg x="9512"><use xlink:href="#a"/><use xlink:href="#b" x="20.996" y="21.685"/><use xlink:href="#23" y="2.171"/><use xlink:href="#24" y="4.342"/><use xlink:href="#25" y="6.513"/><use xlink:href="#35" y="13.026"/><use xlink:href="#36" y="15.197"/><use xlink:href="#33" y="21.71"/></svg><svg x="9594"><use xlink:href="#a"/><use xlink:href="#b" x="22.996" y="21.685"/><use xlink:href="#23" y="2.171"/><use xlink:href="#24" y="4.342"/><use xlink:href="#25" y="6.513"/><use xlink:href="#35" y="13.026"/><use xlink:href="#36" y="15.197"/><text y="23.38" class="c">❯</text><text x="2.004" y="23.38" class="d">album-art</text><text x="12.024" y="23.38" class="d">&apos;The</text><text x="17.034" y="23.38" class="d">Beatle</text></svg><svg x="9676"><use xlink:href="#a"/><use xlink:href="#b" x="23.996" y="21.685"/><use xlink:href="#23" y="2.171"/><use xlink:href="#24" y="4.342"/><use xlink:href="#25" y="6.513"/><use xlink:href="#35" y="13.026"/><use xlink:href="#36" y="15.197"/><use xlink:href="#34" y="21.71"/></svg><svg x="9758"><use xlink:href="#a"/><use xlink:href="#b" x="24.996" y="21.685"/><use xlink:href="#23" y="2.171"/><use xlink:href="#24" y="4.342"/><use xlink:href="#25" y="6.513"/><use xlink:href="#35" y="13.026"/><use xlink:href="#36" y="15.197"/><use xlink:href="#35" y="21.71"/></svg><svg x="9840"><use xlink:href="#a"/><use xlink:href="#b" x="25.996" y="21.685"/><use xlink:href="#23" y="2.171"/><use xlink:href="#24" y="4.342"/><use xlink:href="#25" y="6.513"/><use xlink:href="#35" y="13.026"/><use xlink:href="#36" y="15.197"/><use xlink:href="#35" y="21.71"/></svg><svg x="9922"><use xlink:href="#a"/><use xlink:href="#b" x="26.996" y="21.685"/><use xlink:href="#23" y="2.171"/><use xlink:href="#24" y="4.342"/><use xlink:href="#25" y="6.513"/><use xlink:href="#35" y="13.026"/><use xlink:href="#36" y="15.197"/><text y="23.38" class="c">❯</text><text x="2.004" y="23.38" class="d">album-art</text><text x="12.024" y="23.38" class="d">&apos;The</text><text x="17.034" y="23.38" class="d">Beatles&apos;</text><text x="26.052" y="23.38" class="d">&apos;</text></svg><svg x="10004"><use xlink:href="#a"/><use xlink:href="#b" x="27.996" y="21.685"/><use xlink:href="#23" y="2.171"/><use xlink:href="#24" y="4.342"/><use xlink:href="#25" y="6.513"/><use xlink:href="#35" y="13.026"/><use xlink:href="#36" y="15.197"/><text y="23.38" class="c">❯</text><text x="2.004" y="23.38" class="d">album-art</text><text x="12.024" y="23.38" class="d">&apos;The</text><text x="17.034" y="23.38" class="d">Beatles&apos;</text><text x="26.052" y="23.38" class="d">&apos;h</text></svg><svg x="10086"><use xlink:href="#a"/><use xlink:href="#b" x="28.996" y="21.685"/><use xlink:href="#23" y="2.171"/><use xlink:href="#24" y="4.342"/><use xlink:href="#25" y="6.513"/><use xlink:href="#35" y="13.026"/><use xlink:href="#36" y="15.197"/><text y="23.38" class="c">❯</text><text x="2.004" y="23.38" class="d">album-art</text><text x="12.024" y="23.38" class="d">&apos;The</text><text x="17.034" y="23.38" class="d">Beatles&apos;</text><text x="26.052" y="23.38" class="d">&apos;he</text></svg><svg x="10168"><use xlink:href="#a"/><use xlink:href="#b" x="29.996" y="21.685"/><use xlink:href="#23" y="2.171"/><use xlink:href="#24" y="4.342"/><use xlink:href="#25" y="6.513"/><use xlink:href="#35" y="13.026"/><use xlink:href="#36" y="15.197"/><text y="23.38" class="c">❯</text><text x="2.004" y="23.38" class="d">album-art</text><text x="12.024" y="23.38" class="d">&apos;The</text><text x="17.034" y="23.38" class="d">Beatles&apos;</text><text x="26.052" y="23.38" class="d">&apos;hel</text></svg><svg x="10250"><use xlink:href="#a"/><use xlink:href="#b" x="30.996" y="21.685"/><use xlink:href="#23" y="2.171"/><use xlink:href="#24" y="4.342"/><use xlink:href="#25" y="6.513"/><use xlink:href="#35" y="13.026"/><use xlink:href="#36" y="15.197"/><text y="23.38" class="c">❯</text><text x="2.004" y="23.38" class="d">album-art</text><text x="12.024" y="23.38" class="d">&apos;The</text><text x="17.034" y="23.38" class="d">Beatles&apos;</text><text x="26.052" y="23.38" class="d">&apos;help</text></svg><svg x="10332"><use xlink:href="#a"/><use xlink:href="#b" x="31.996" y="21.685"/><use xlink:href="#23" y="2.171"/><use xlink:href="#24" y="4.342"/><use xlink:href="#25" y="6.513"/><use xlink:href="#35" y="13.026"/><use xlink:href="#36" y="15.197"/><use xlink:href="#37" y="21.71"/></svg><svg x="10414"><use xlink:href="#a"/><use xlink:href="#b" x="-.004" y="21.685"/><use xlink:href="#23"/><use xlink:href="#24" y="2.171"/><use xlink:href="#25" y="4.342"/><use xlink:href="#35" y="10.855"/><use xlink:href="#36" y="13.026"/><use xlink:href="#37" y="19.539"/></svg><svg x="10496"><use xlink:href="#a"/><use xlink:href="#b" x="-.004" y="21.685"/><use xlink:href="#23"/><use xlink:href="#24" y="2.171"/><use xlink:href="#25" y="4.342"/><use xlink:href="#35" y="10.855"/><use xlink:href="#36" y="13.026"/><use xlink:href="#37" y="19.539"/></svg><svg x="10578"><use xlink:href="#a"/><use xlink:href="#b" x="-.004" y="21.685"/><use xlink:href="#24"/><use xlink:href="#25" y="2.171"/><use xlink:href="#35" y="8.684"/><use xlink:href="#36" y="10.855"/><use xlink:href="#37" y="17.368"/><use xlink:href="#38" y="19.539"/></svg><svg x="10660"><use xlink:href="#a"/><use xlink:href="#b" x="-.004" y="21.685"/><use xlink:href="#24"/><use xlink:href="#25" y="2.171"/><use xlink:href="#35" y="8.684"/><use xlink:href="#36" y="10.855"/><use xlink:href="#37" y="17.368"/><use xlink:href="#38" y="19.539"/></svg><svg x="10742"><use xlink:href="#a"/><use xlink:href="#b" x="-.004" y="21.685"/><use xlink:href="#35" y="4.342"/><use xlink:href="#36" y="6.513"/><use xlink:href="#37" y="13.026"/><use xlink:href="#38" y="15.197"/></svg><svg x="10824"><use xlink:href="#a"/><use xlink:href="#b" x="-.004" y="21.685"/><use xlink:href="#35" y="4.342"/><use xlink:href="#36" y="6.513"/><use xlink:href="#37" y="13.026"/><use xlink:href="#38" y="15.197"/></svg><svg x="10906"><use xlink:href="#a"/><use xlink:href="#b" x="-.004" y="21.685"/><use xlink:href="#35" y="4.342"/><use xlink:href="#36" y="6.513"/><use xlink:href="#37" y="13.026"/><use xlink:href="#38" y="15.197"/></svg><svg x="10988"><use xlink:href="#a"/><use xlink:href="#b" x="1.996" y="21.685"/><use xlink:href="#35" y="4.342"/><use xlink:href="#36" y="6.513"/><use xlink:href="#37" y="13.026"/><use xlink:href="#38" y="15.197"/><use xlink:href="#1" y="21.71"/></svg><svg x="11070"><use xlink:href="#a"/><use xlink:href="#b" x="1.996" y="21.685"/><use xlink:href="#35" y="4.342"/><use xlink:href="#36" y="6.513"/><use xlink:href="#37" y="13.026"/><use xlink:href="#38" y="15.197"/><use xlink:href="#1" y="21.71"/></svg><svg x="11152"><use xlink:href="#a"/><use xlink:href="#b" x="1.996" y="21.685"/><use xlink:href="#35" y="4.342"/><use xlink:href="#36" y="6.513"/><use xlink:href="#37" y="13.026"/><use xlink:href="#38" y="15.197"/><use xlink:href="#1" y="21.71"/></svg><svg x="11234"><use xlink:href="#a"/><use xlink:href="#b" x="-.004" y="21.685"/><use xlink:href="#35" y="2.171"/><use xlink:href="#36" y="4.342"/><use xlink:href="#37" y="10.855"/><use xlink:href="#38" y="13.026"/><use xlink:href="#1" y="19.539"/></svg></svg></g></g></svg></svg>