<svg xmlns="http://www.w3.org/2000/svg" viewBox="0 0 1280 640" fill="none">
  <title>album-art — Fetch album &amp; artist cover art</title>
  <defs>
    <radialGradient id="g" cx="80%" cy="20%" r="80%">
      <stop offset="0%" stop-color="#f59e0b" stop-opacity="0.20"/>
      <stop offset="60%" stop-color="#0a0510" stop-opacity="0"/>
    </radialGradient>
    <pattern id="grid" width="40" height="40" patternUnits="userSpaceOnUse">
      <path d="M 40 0 L 0 0 0 40" fill="none" stroke="#ffffff" stroke-opacity="0.04" stroke-width="1"/>
    </pattern>
  </defs>
  <rect width="1280" height="640" fill="#0a0510"/>
  <rect width="1280" height="640" fill="url(#grid)"/>
  <rect width="1280" height="640" fill="url(#g)"/>

  <!-- Large decorative mark on right (low opacity) -->
  <g transform="translate(820, 120) scale(1.7)" opacity="0.10">
    <rect x="0" y="0" width="256" height="256" rx="56" fill="#f59e0b"/>
    
			<g fill="#ffffff">
				<ellipse cx="98" cy="170" rx="28" ry="20" transform="rotate(-20 98 170)"/>
				<rect x="120" y="70" width="10" height="106"/>
				<path d="M120 70 Q170 80 170 130 Q160 110 130 110 Z"/>
			</g>
  </g>

  <!-- Small primary mark, top-left -->
  <g transform="translate(96, 96) scale(0.47)">
    <rect x="0" y="0" width="256" height="256" rx="56" fill="#f59e0b"/>
    
			<g fill="#ffffff">
				<ellipse cx="98" cy="170" rx="28" ry="20" transform="rotate(-20 98 170)"/>
				<rect x="120" y="70" width="10" height="106"/>
				<path d="M120 70 Q170 80 170 130 Q160 110 130 110 Z"/>
			</g>
  </g>

  <!-- Wordmark, tagline, footnote (all outlined paths — no font dependency) -->
  <path fill="#fafafa" d="M133.44 381.56L133.44 381.56Q120.86 381.56 112.77 375.16Q104.69 368.75 104.69 355.78L104.69 355.78Q104.69 346.09 109.14 340.39Q113.59 334.69 120.98 331.95Q128.36 329.22 137.19 328.44L137.19 328.44Q148.28 327.50 153.09 326.13Q157.89 324.77 157.89 320.70L157.89 320.70L157.89 320.39Q157.89 315.86 154.73 313.40Q151.56 310.94 146.02 310.94L146.02 310.94Q140.31 310.94 136.64 313.36Q132.97 315.78 131.88 319.92L131.88 319.92L107.19 316.72Q109.77 305.55 119.80 298.55Q129.84 291.56 146.25 291.56L146.25 291.56Q157.11 291.56 165.90 294.92Q174.69 298.28 179.88 304.80Q185.08 311.33 185.08 320.70L185.08 320.70L185.08 380L159.45 380L159.45 367.73L158.75 367.73Q151.48 381.56 133.44 381.56ZM141.72 363.52L141.72 363.52Q148.59 363.52 153.36 359.45Q158.13 355.39 158.13 348.91L158.13 348.91L158.13 340.55Q155.78 341.80 151.33 342.66Q146.88 343.52 143.05 344.14L143.05 344.14Q130.47 346.02 130.47 354.53L130.47 354.53Q130.47 358.91 133.63 361.21Q136.80 363.52 141.72 363.52ZM195.13 263.59L222.39 263.59L222.39 380L195.13 380L195.13 263.59ZM284.86 381.25L284.86 381.25Q274.86 381.25 268.88 376.52Q262.91 371.80 260.33 365.86L260.33 365.86L259.39 365.86L259.39 380L232.44 380L232.44 263.59L259.70 263.59L259.70 307.66L260.33 307.66Q261.97 303.75 265.09 300.04Q268.22 296.33 273.14 293.95Q278.06 291.56 285.02 291.56L285.02 291.56Q294.23 291.56 302.16 296.41Q310.09 301.25 314.98 311.17Q319.86 321.09 319.86 336.41L319.86 336.41Q319.86 351.25 315.13 361.21Q310.41 371.17 302.48 376.21Q294.55 381.25 284.86 381.25ZM275.56 360L275.56 360Q283.45 360 287.63 353.52Q291.81 347.03 291.81 336.41L291.81 336.41Q291.81 325.78 287.63 319.34Q283.45 312.89 275.56 312.89L275.56 312.89Q267.75 312.89 263.41 319.22Q259.08 325.55 259.08 336.41L259.08 336.41Q259.08 347.11 263.41 353.55Q267.75 360 275.56 360ZM356.78 381.09L356.78 381.09Q343.03 381.09 334.75 372.11Q326.47 363.13 326.47 348.28L326.47 348.28L326.47 292.66L353.73 292.66L353.73 342.97Q353.73 350.31 357.52 354.49Q361.31 358.67 367.95 358.67L367.95 358.67Q374.67 358.67 378.77 354.41Q382.88 350.16 382.88 342.50L382.88 342.50L382.88 292.66L410.14 292.66L410.14 380L384.52 380L384.13 361.09Q380.61 370.23 373.97 375.66Q367.33 381.09 356.78 381.09ZM447.38 380L420.11 380L420.11 292.66L445.19 292.66L446.44 310Q450.03 300.16 456.87 295.82Q463.70 291.48 471.59 291.48L471.59 291.48Q479.88 291.48 485.38 296.25Q490.89 301.02 494.09 311.72L494.09 311.72Q498.08 300.94 505.85 296.21Q513.63 291.48 522.45 291.48L522.45 291.48Q534.72 291.48 542.57 299.38Q550.42 307.27 550.42 321.09L550.42 321.09L550.42 380L523.16 380L523.16 327.27Q523.16 320.63 519.72 317.19Q516.28 313.75 510.89 313.75L510.89 313.75Q505.11 313.75 501.75 317.54Q498.39 321.33 498.39 327.58L498.39 327.58L498.39 380L472.22 380L472.22 326.88Q472.22 320.86 468.82 317.30Q465.42 313.75 460.03 313.75L460.03 313.75Q454.48 313.75 450.93 317.50Q447.38 321.25 447.38 328.13L447.38 328.13L447.38 380ZM562.34 322.34L616.02 322.34L616.02 343.36L562.34 343.36L562.34 322.34ZM652.31 381.56L652.31 381.56Q639.73 381.56 631.65 375.16Q623.56 368.75 623.56 355.78L623.56 355.78Q623.56 346.09 628.02 340.39Q632.47 334.69 639.85 331.95Q647.23 329.22 656.06 328.44L656.06 328.44Q667.16 327.50 671.96 326.13Q676.77 324.77 676.77 320.70L676.77 320.70L676.77 320.39Q676.77 315.86 673.60 313.40Q670.44 310.94 664.89 310.94L664.89 310.94Q659.19 310.94 655.52 313.36Q651.84 315.78 650.75 319.92L650.75 319.92L626.06 316.72Q628.64 305.55 638.68 298.55Q648.72 291.56 665.13 291.56L665.13 291.56Q675.98 291.56 684.77 294.92Q693.56 298.28 698.76 304.80Q703.95 311.33 703.95 320.70L703.95 320.70L703.95 380L678.33 380L678.33 367.73L677.63 367.73Q670.36 381.56 652.31 381.56ZM660.59 363.52L660.59 363.52Q667.47 363.52 672.23 359.45Q677 355.39 677 348.91L677 348.91L677 340.55Q674.66 341.80 670.20 342.66Q665.75 343.52 661.92 344.14L661.92 344.14Q649.34 346.02 649.34 354.53L649.34 354.53Q649.34 358.91 652.51 361.21Q655.67 363.52 660.59 363.52ZM741.27 380L714 380L714 292.66L740.48 292.66L740.48 308.59L741.42 308.59Q743.77 300 749.20 295.78Q754.63 291.56 761.81 291.56L761.81 291.56Q765.80 291.56 769.55 292.50L769.55 292.50L769.55 316.25Q767.59 315.55 764.43 315.20Q761.27 314.84 758.77 314.84L758.77 314.84Q751.19 314.84 746.23 319.69Q741.27 324.53 741.27 332.34L741.27 332.34L741.27 380ZM804.59 292.66L820.30 292.66L820.30 312.89L804.59 312.89L804.59 353.28Q804.59 360.08 811.55 360.08L811.55 360.08Q812.95 360.08 815.49 359.73Q818.03 359.38 819.13 359.14L819.13 359.14L822.64 378.98Q818.03 380.31 813.73 380.78Q809.44 381.25 805.61 381.25L805.61 381.25Q791.70 381.25 784.52 374.73Q777.33 368.20 777.33 355.70L777.33 355.70L777.33 312.89L765.77 312.89L765.77 292.66L777.33 292.66L777.33 271.88L804.59 271.88L804.59 292.66Z"/>
  <path fill="#fbbf24" d="M107.33 440L101.81 440L101.81 416.72L117.64 416.72L117.64 421.22L107.33 421.22L107.33 427.13L116.63 427.13L116.63 431.53L107.33 431.53L107.33 440ZM128.35 440.33L128.35 440.33Q124.24 440.33 121.89 437.93Q119.54 435.53 119.54 431.33L119.54 431.33Q119.54 428.64 120.59 426.61Q121.65 424.58 123.59 423.45Q125.52 422.31 128.15 422.31L128.15 422.31Q130.60 422.31 132.50 423.34Q134.40 424.36 135.48 426.35Q136.57 428.34 136.57 431.22L136.57 431.22L136.57 432.59L124.90 432.59Q124.98 434.48 125.94 435.43Q126.90 436.38 128.45 436.38L128.45 436.38Q129.54 436.38 130.34 435.91Q131.13 435.45 131.46 434.58L131.46 434.58L136.32 435.38Q135.66 437.64 133.59 438.98Q131.52 440.33 128.35 440.33ZM124.93 429.42L124.93 429.42L131.40 429.42Q131.24 427.94 130.43 427.10Q129.62 426.27 128.20 426.27L128.20 426.27Q126.76 426.27 125.92 427.12Q125.09 427.97 124.93 429.42ZM145.39 422.53L148.53 422.53L148.53 426.58L145.39 426.58L145.39 434.66Q145.39 436.02 146.78 436.02L146.78 436.02Q147.06 436.02 147.57 435.95Q148.08 435.88 148.30 435.83L148.30 435.83L149.00 439.80Q148.08 440.06 147.22 440.16Q146.36 440.25 145.59 440.25L145.59 440.25Q142.81 440.25 141.38 438.95Q139.94 437.64 139.94 435.14L139.94 435.14L139.94 426.58L137.63 426.58L137.63 422.53L139.94 422.53L139.94 418.38L145.39 418.38L145.39 422.53ZM159.12 440.33L159.12 440.33Q156.38 440.33 154.42 439.20Q152.45 438.06 151.39 436.04Q150.34 434.02 150.34 431.33L150.34 431.33Q150.34 428.64 151.39 426.61Q152.45 424.58 154.42 423.45Q156.38 422.31 159.12 422.31L159.12 422.31Q162.46 422.31 164.61 423.98Q166.76 425.66 167.17 428.52L167.17 428.52L162.13 429.36Q161.87 427.98 161.13 427.23Q160.38 426.48 159.18 426.48L159.18 426.48Q157.62 426.48 156.76 427.76Q155.90 429.03 155.90 431.30L155.90 431.30Q155.90 433.55 156.76 434.85Q157.62 436.16 159.18 436.16L159.18 436.16Q160.38 436.16 161.14 435.38Q161.90 434.59 162.15 433.19L162.15 433.19L167.18 434Q166.77 436.94 164.63 438.63Q162.49 440.33 159.12 440.33ZM175.19 430.03L175.19 430.03L175.19 440L169.74 440L169.74 416.72L175.08 416.72L175.08 426Q175.78 424.31 177.09 423.31Q178.39 422.31 180.42 422.31L180.42 422.31Q183.16 422.31 184.81 424.11Q186.47 425.91 186.47 428.88L186.47 428.88L186.47 440L181.02 440L181.02 429.94Q181.02 428.47 180.27 427.63Q179.52 426.80 178.17 426.80L178.17 426.80Q176.85 426.80 176.02 427.65Q175.19 428.50 175.19 430.03ZM201.31 440.31L201.31 440.31Q198.80 440.31 197.18 439.03Q195.56 437.75 195.56 435.16L195.56 435.16Q195.56 433.22 196.46 432.08Q197.35 430.94 198.82 430.39Q200.30 429.84 202.06 429.69L202.06 429.69Q204.28 429.50 205.24 429.23Q206.21 428.95 206.21 428.14L206.21 428.14L206.21 428.08Q206.21 427.17 205.57 426.68Q204.94 426.19 203.83 426.19L203.83 426.19Q202.69 426.19 201.96 426.67Q201.22 427.16 201.00 427.98L201.00 427.98L196.06 427.34Q196.58 425.11 198.59 423.71Q200.60 422.31 203.88 422.31L203.88 422.31Q206.05 422.31 207.81 422.98Q209.56 423.66 210.60 424.96Q211.64 426.27 211.64 428.14L211.64 428.14L211.64 440L206.52 440L206.52 437.55L206.38 437.55Q204.92 440.31 201.31 440.31ZM202.97 436.70L202.97 436.70Q204.35 436.70 205.30 435.89Q206.25 435.08 206.25 433.78L206.25 433.78L206.25 432.11Q205.78 432.36 204.89 432.53Q204.00 432.70 203.24 432.83L203.24 432.83Q200.72 433.20 200.72 434.91L200.72 434.91Q200.72 435.78 201.35 436.24Q201.99 436.70 202.97 436.70ZM214.93 416.72L220.39 416.72L220.39 440L214.93 440L214.93 416.72ZM234.16 440.25L234.16 440.25Q232.16 440.25 230.96 439.30Q229.77 438.36 229.25 437.17L229.25 437.17L229.07 437.17L229.07 440L223.67 440L223.67 416.72L229.13 416.72L229.13 425.53L229.25 425.53Q229.58 424.75 230.21 424.01Q230.83 423.27 231.82 422.79Q232.80 422.31 234.19 422.31L234.19 422.31Q236.03 422.31 237.62 423.28Q239.21 424.25 240.18 426.23Q241.16 428.22 241.16 431.28L241.16 431.28Q241.16 434.25 240.21 436.24Q239.27 438.23 237.68 439.24Q236.10 440.25 234.16 440.25ZM232.30 436L232.30 436Q233.88 436 234.71 434.70Q235.55 433.41 235.55 431.28L235.55 431.28Q235.55 429.16 234.71 427.87Q233.88 426.58 232.30 426.58L232.30 426.58Q230.74 426.58 229.87 427.84Q229.00 429.11 229.00 431.28L229.00 431.28Q229.00 433.42 229.87 434.71Q230.74 436 232.30 436ZM249.82 440.22L249.82 440.22Q247.07 440.22 245.42 438.42Q243.76 436.63 243.76 433.66L243.76 433.66L243.76 422.53L249.21 422.53L249.21 432.59Q249.21 434.06 249.97 434.90Q250.73 435.73 252.06 435.73L252.06 435.73Q253.40 435.73 254.22 434.88Q255.04 434.03 255.04 432.50L255.04 432.50L255.04 422.53L260.50 422.53L260.50 440L255.37 440L255.29 436.22Q254.59 438.05 253.26 439.13Q251.93 440.22 249.82 440.22ZM269.22 440L263.77 440L263.77 422.53L268.78 422.53L269.03 426Q269.75 424.03 271.12 423.16Q272.49 422.30 274.07 422.30L274.07 422.30Q275.72 422.30 276.82 423.25Q277.93 424.20 278.57 426.34L278.57 426.34Q279.36 424.19 280.92 423.24Q282.47 422.30 284.24 422.30L284.24 422.30Q286.69 422.30 288.26 423.88Q289.83 425.45 289.83 428.22L289.83 428.22L289.83 440L284.38 440L284.38 429.45Q284.38 428.13 283.69 427.44Q283.00 426.75 281.93 426.75L281.93 426.75Q280.77 426.75 280.10 427.51Q279.43 428.27 279.43 429.52L279.43 429.52L279.43 440L274.19 440L274.19 429.38Q274.19 428.17 273.51 427.46Q272.83 426.75 271.75 426.75L271.75 426.75Q270.64 426.75 269.93 427.50Q269.22 428.25 269.22 429.63L269.22 429.63L269.22 440ZM307.04 440.36L307.04 440.36Q304.58 440.36 302.81 439.48Q301.04 438.61 300.08 437.13Q299.13 435.64 299.13 433.84L299.13 433.84Q299.13 431.81 300.26 430.45Q301.39 429.08 303.29 427.84L303.29 427.84Q302.44 426.73 301.83 425.42Q301.22 424.11 301.22 422.56L301.22 422.56Q301.22 420.84 302.04 419.45Q302.85 418.05 304.32 417.23Q305.80 416.41 307.77 416.41L307.77 416.41Q309.68 416.41 311.05 417.18Q312.43 417.95 313.18 419.24Q313.93 420.53 313.93 422.09L313.93 422.09Q313.93 423.72 313.11 425.08Q312.30 426.44 310.83 427.50L310.83 427.50L309.58 428.39L313.05 432.31Q313.52 431.45 313.79 430.45Q314.07 429.44 314.07 428.31L314.07 428.31L318.49 428.31Q318.49 433.05 316.30 435.97L316.30 435.97L319.88 440L314.30 440L312.99 438.56Q311.66 439.50 310.09 439.93Q308.52 440.36 307.04 440.36ZM310.02 435.33L310.02 435.33L306.00 430.95Q305.27 431.48 304.82 432.08Q304.38 432.67 304.38 433.53L304.38 433.53Q304.38 434.69 305.19 435.37Q306.00 436.05 307.33 436.05L307.33 436.05Q308.69 436.05 310.02 435.33ZM307.04 425.44L307.04 425.44L308.18 424.72Q309.72 423.72 309.72 422.42L309.72 422.42Q309.72 421.73 309.23 421.23Q308.74 420.73 307.79 420.73L307.79 420.73Q306.86 420.73 306.32 421.26Q305.77 421.78 305.77 422.63L305.77 422.63Q305.77 423.31 306.11 424Q306.44 424.69 307.04 425.44ZM332.91 440.31L332.91 440.31Q330.40 440.31 328.78 439.03Q327.16 437.75 327.16 435.16L327.16 435.16Q327.16 433.22 328.05 432.08Q328.94 430.94 330.42 430.39Q331.90 429.84 333.66 429.69L333.66 429.69Q335.88 429.50 336.84 429.23Q337.80 428.95 337.80 428.14L337.80 428.14L337.80 428.08Q337.80 427.17 337.17 426.68Q336.54 426.19 335.43 426.19L335.43 426.19Q334.29 426.19 333.55 426.67Q332.82 427.16 332.60 427.98L332.60 427.98L327.66 427.34Q328.18 425.11 330.18 423.71Q332.19 422.31 335.47 422.31L335.47 422.31Q337.65 422.31 339.40 422.98Q341.16 423.66 342.20 424.96Q343.24 426.27 343.24 428.14L343.24 428.14L343.24 440L338.11 440L338.11 437.55L337.97 437.55Q336.52 440.31 332.91 440.31ZM334.57 436.70L334.57 436.70Q335.94 436.70 336.90 435.89Q337.85 435.08 337.85 433.78L337.85 433.78L337.85 432.11Q337.38 432.36 336.49 432.53Q335.60 432.70 334.83 432.83L334.83 432.83Q332.32 433.20 332.32 434.91L332.32 434.91Q332.32 435.78 332.95 436.24Q333.58 436.70 334.57 436.70ZM351.98 440L346.53 440L346.53 422.53L351.83 422.53L351.83 425.72L352.01 425.72Q352.48 424 353.57 423.16Q354.65 422.31 356.09 422.31L356.09 422.31Q356.89 422.31 357.64 422.50L357.64 422.50L357.64 427.25Q357.25 427.11 356.61 427.04Q355.98 426.97 355.48 426.97L355.48 426.97Q353.97 426.97 352.97 427.94Q351.98 428.91 351.98 430.47L351.98 430.47L351.98 440ZM365.93 422.53L369.07 422.53L369.07 426.58L365.93 426.58L365.93 434.66Q365.93 436.02 367.32 436.02L367.32 436.02Q367.60 436.02 368.11 435.95Q368.61 435.88 368.83 435.83L368.83 435.83L369.54 439.80Q368.61 440.06 367.76 440.16Q366.90 440.25 366.13 440.25L366.13 440.25Q363.35 440.25 361.91 438.95Q360.47 437.64 360.47 435.14L360.47 435.14L360.47 426.58L358.16 426.58L358.16 422.53L360.47 422.53L360.47 418.38L365.93 418.38L365.93 422.53ZM377.00 440L371.54 440L371.54 422.53L377.00 422.53L377.00 440ZM374.26 420.48L374.26 420.48Q373.11 420.48 372.28 419.72Q371.45 418.95 371.45 417.86L371.45 417.86Q371.45 416.77 372.28 416Q373.11 415.23 374.26 415.23L374.26 415.23Q375.44 415.23 376.26 416Q377.09 416.77 377.09 417.86L377.09 417.86Q377.09 418.95 376.26 419.72Q375.44 420.48 374.26 420.48ZM387.65 440.33L387.65 440.33Q384.29 440.33 382.12 438.91Q379.96 437.50 379.51 435L379.51 435L384.57 434.20Q384.90 435.34 385.68 435.92Q386.46 436.50 387.85 436.50L387.85 436.50Q388.99 436.50 389.65 436.10Q390.30 435.70 390.30 435.05L390.30 435.05Q390.30 433.91 388.16 433.48L388.16 433.48L385.12 432.89Q379.94 431.91 379.94 427.86L379.94 427.86Q379.94 425.25 382.03 423.78Q384.12 422.31 387.63 422.31L387.63 422.31Q390.91 422.31 392.90 423.61Q394.88 424.91 395.33 427.16L395.33 427.16L390.52 427.92Q389.99 426.06 387.72 426.06L387.72 426.06Q386.74 426.06 386.06 426.46Q385.38 426.86 385.38 427.53L385.38 427.53Q385.38 428.06 385.80 428.46Q386.22 428.86 387.35 429.08L387.35 429.08L390.69 429.70Q395.83 430.67 395.83 434.42L395.83 434.42Q395.83 436.22 394.78 437.55Q393.72 438.88 391.88 439.60Q390.04 440.33 387.65 440.33ZM404.59 422.53L407.73 422.53L407.73 426.58L404.59 426.58L404.59 434.66Q404.59 436.02 405.98 436.02L405.98 436.02Q406.26 436.02 406.77 435.95Q407.28 435.88 407.50 435.83L407.50 435.83L408.20 439.80Q407.28 440.06 406.42 440.16Q405.56 440.25 404.80 440.25L404.80 440.25Q402.01 440.25 400.58 438.95Q399.14 437.64 399.14 435.14L399.14 435.14L399.14 426.58L396.83 426.58L396.83 422.53L399.14 422.53L399.14 418.38L404.59 418.38L404.59 422.53ZM425.00 440.33L425.00 440.33Q422.26 440.33 420.30 439.20Q418.33 438.06 417.27 436.04Q416.22 434.02 416.22 431.33L416.22 431.33Q416.22 428.64 417.27 426.61Q418.33 424.58 420.30 423.45Q422.26 422.31 425.00 422.31L425.00 422.31Q428.34 422.31 430.49 423.98Q432.64 425.66 433.05 428.52L433.05 428.52L428.01 429.36Q427.75 427.98 427.01 427.23Q426.26 426.48 425.06 426.48L425.06 426.48Q423.50 426.48 422.64 427.76Q421.78 429.03 421.78 431.30L421.78 431.30Q421.78 433.55 422.64 434.85Q423.50 436.16 425.06 436.16L425.06 436.16Q426.26 436.16 427.02 435.38Q427.78 434.59 428.03 433.19L428.03 433.19L433.06 434Q432.66 436.94 430.51 438.63Q428.37 440.33 425.00 440.33ZM443.73 440.33L443.73 440.33Q440.99 440.33 439.02 439.20Q437.05 438.06 436.00 436.04Q434.94 434.02 434.94 431.33L434.94 431.33Q434.94 428.64 436.00 426.61Q437.05 424.58 439.02 423.45Q440.99 422.31 443.73 422.31L443.73 422.31Q446.46 422.31 448.42 423.45Q450.38 424.58 451.44 426.61Q452.49 428.64 452.49 431.33L452.49 431.33Q452.49 434.02 451.44 436.04Q450.38 438.06 448.42 439.20Q446.46 440.33 443.73 440.33ZM443.73 436.16L443.73 436.16Q445.29 436.16 446.12 434.82Q446.94 433.48 446.94 431.30L446.94 431.30Q446.94 429.11 446.12 427.80Q445.29 426.48 443.73 426.48L443.73 426.48Q442.16 426.48 441.34 427.80Q440.51 429.11 440.51 431.30L440.51 431.30Q440.51 433.48 441.34 434.82Q442.16 436.16 443.73 436.16ZM466.30 440L459.98 440L453.66 422.53L459.41 422.53L462.02 431.08Q462.37 432.25 462.66 433.45Q462.95 434.66 463.23 435.92L463.23 435.92Q463.48 434.66 463.77 433.46Q464.05 432.27 464.41 431.08L464.41 431.08L466.97 422.53L472.66 422.53L466.30 440ZM482.62 440.33L482.62 440.33Q478.51 440.33 476.16 437.93Q473.80 435.53 473.80 431.33L473.80 431.33Q473.80 428.64 474.86 426.61Q475.91 424.58 477.85 423.45Q479.79 422.31 482.41 422.31L482.41 422.31Q484.87 422.31 486.77 423.34Q488.66 424.36 489.75 426.35Q490.84 428.34 490.84 431.22L490.84 431.22L490.84 432.59L479.16 432.59Q479.24 434.48 480.20 435.43Q481.16 436.38 482.71 436.38L482.71 436.38Q483.80 436.38 484.60 435.91Q485.40 435.45 485.73 434.58L485.73 434.58L490.59 435.38Q489.93 437.64 487.86 438.98Q485.79 440.33 482.62 440.33ZM479.20 429.42L479.20 429.42L485.66 429.42Q485.51 427.94 484.70 427.10Q483.88 426.27 482.46 426.27L482.46 426.27Q481.02 426.27 480.19 427.12Q479.35 427.97 479.20 429.42ZM498.83 440L493.38 440L493.38 422.53L498.67 422.53L498.67 425.72L498.86 425.72Q499.33 424 500.41 423.16Q501.50 422.31 502.94 422.31L502.94 422.31Q503.73 422.31 504.48 422.50L504.48 422.50L504.48 427.25Q504.09 427.11 503.46 427.04Q502.83 426.97 502.33 426.97L502.33 426.97Q500.81 426.97 499.82 427.94Q498.83 428.91 498.83 430.47L498.83 430.47L498.83 440ZM518.06 440.31L518.06 440.31Q515.55 440.31 513.93 439.03Q512.31 437.75 512.31 435.16L512.31 435.16Q512.31 433.22 513.20 432.08Q514.09 430.94 515.57 430.39Q517.05 429.84 518.81 429.69L518.81 429.69Q521.03 429.50 521.99 429.23Q522.95 428.95 522.95 428.14L522.95 428.14L522.95 428.08Q522.95 427.17 522.32 426.68Q521.69 426.19 520.58 426.19L520.58 426.19Q519.44 426.19 518.70 426.67Q517.97 427.16 517.75 427.98L517.75 427.98L512.81 427.34Q513.33 425.11 515.34 423.71Q517.34 422.31 520.63 422.31L520.63 422.31Q522.80 422.31 524.56 422.98Q526.31 423.66 527.35 424.96Q528.39 426.27 528.39 428.14L528.39 428.14L528.39 440L523.27 440L523.27 437.55L523.13 437.55Q521.67 440.31 518.06 440.31ZM519.72 436.70L519.72 436.70Q521.09 436.70 522.05 435.89Q523.00 435.08 523.00 433.78L523.00 433.78L523.00 432.11Q522.53 432.36 521.64 432.53Q520.75 432.70 519.99 432.83L519.99 432.83Q517.47 433.20 517.47 434.91L517.47 434.91Q517.47 435.78 518.10 436.24Q518.74 436.70 519.72 436.70ZM537.13 440L531.68 440L531.68 422.53L536.98 422.53L536.98 425.72L537.17 425.72Q537.63 424 538.72 423.16Q539.81 422.31 541.24 422.31L541.24 422.31Q542.04 422.31 542.79 422.50L542.79 422.50L542.79 427.25Q542.40 427.11 541.77 427.04Q541.13 426.97 540.63 426.97L540.63 426.97Q539.12 426.97 538.13 427.94Q537.13 428.91 537.13 430.47L537.13 430.47L537.13 440ZM551.08 422.53L554.22 422.53L554.22 426.58L551.08 426.58L551.08 434.66Q551.08 436.02 552.47 436.02L552.47 436.02Q552.75 436.02 553.26 435.95Q553.77 435.88 553.99 435.83L553.99 435.83L554.69 439.80Q553.77 440.06 552.91 440.16Q552.05 440.25 551.28 440.25L551.28 440.25Q548.50 440.25 547.06 438.95Q545.63 437.64 545.63 435.14L545.63 435.14L545.63 426.58L543.31 426.58L543.31 422.53L545.63 422.53L545.63 418.38L551.08 418.38L551.08 422.53Z"/>
  <path fill="#6b6275" d="M959.40 577.45L962.81 577.45L962.81 592L959.40 592L959.40 577.45ZM968.12 592.20L968.12 592.20Q966.55 592.20 965.54 591.39Q964.53 590.59 964.53 588.97L964.53 588.97Q964.53 587.76 965.08 587.05Q965.64 586.34 966.56 585.99Q967.49 585.65 968.59 585.55L968.59 585.55Q969.98 585.44 970.58 585.27Q971.18 585.10 971.18 584.59L971.18 584.59L971.18 584.55Q971.18 583.98 970.78 583.67Q970.39 583.37 969.69 583.37L969.69 583.37Q968.98 583.37 968.52 583.67Q968.06 583.97 967.93 584.49L967.93 584.49L964.84 584.09Q965.16 582.69 966.42 581.82Q967.67 580.95 969.72 580.95L969.72 580.95Q971.08 580.95 972.18 581.37Q973.28 581.79 973.93 582.60Q974.58 583.42 974.58 584.59L974.58 584.59L974.58 592L971.37 592L971.37 590.47L971.29 590.47Q970.38 592.20 968.12 592.20ZM969.16 589.94L969.16 589.94Q970.02 589.94 970.61 589.43Q971.21 588.92 971.21 588.11L971.21 588.11L971.21 587.07Q970.91 587.22 970.36 587.33Q969.80 587.44 969.32 587.52L969.32 587.52Q967.75 587.75 967.75 588.82L967.75 588.82Q967.75 589.36 968.15 589.65Q968.54 589.94 969.16 589.94ZM981.90 592.21L981.90 592.21Q980.19 592.21 978.96 591.50Q977.73 590.79 977.07 589.52Q976.41 588.26 976.41 586.58L976.41 586.58Q976.41 584.90 977.07 583.63Q977.73 582.36 978.96 581.65Q980.19 580.95 981.90 580.95L981.90 580.95Q983.99 580.95 985.33 581.99Q986.68 583.04 986.93 584.82L986.93 584.82L983.79 585.35Q983.62 584.49 983.16 584.02Q982.69 583.55 981.94 583.55L981.94 583.55Q980.96 583.55 980.43 584.35Q979.89 585.14 979.89 586.56L979.89 586.56Q979.89 587.97 980.43 588.78Q980.96 589.60 981.94 589.60L981.94 589.60Q982.69 589.60 983.17 589.11Q983.64 588.62 983.79 587.74L983.79 587.74L986.94 588.25Q986.69 590.09 985.35 591.15Q984.01 592.21 981.90 592.21ZM988.71 595.83L988.71 595.83L989.47 593.34L989.90 593.46Q990.82 593.70 991.38 593.43Q991.95 593.15 991.91 592.48L991.91 592.48L991.90 592.02L987.83 581.08L991.42 581.08L993.05 586.42Q993.27 587.13 993.41 587.83Q993.56 588.53 993.70 589.27L993.70 589.27Q993.86 588.52 994.05 587.82Q994.23 587.12 994.46 586.42L994.46 586.42L996.21 581.08L999.76 581.08L995.18 593.15Q994.68 594.48 993.70 595.32Q992.71 596.16 990.88 596.16L990.88 596.16Q989.56 596.16 988.71 595.83ZM1004.51 592L1001.10 592L1001.10 581.08L1004.23 581.08L1004.39 583.25Q1004.84 582.02 1005.69 581.48Q1006.55 580.94 1007.54 580.94L1007.54 580.94Q1008.57 580.94 1009.26 581.53Q1009.95 582.13 1010.35 583.46L1010.35 583.46Q1010.85 582.12 1011.82 581.53Q1012.79 580.94 1013.89 580.94L1013.89 580.94Q1015.43 580.94 1016.41 581.92Q1017.39 582.91 1017.39 584.64L1017.39 584.64L1017.39 592L1013.98 592L1013.98 585.41Q1013.98 584.58 1013.55 584.15Q1013.12 583.72 1012.45 583.72L1012.45 583.72Q1011.72 583.72 1011.30 584.19Q1010.88 584.67 1010.88 585.45L1010.88 585.45L1010.88 592L1007.61 592L1007.61 585.36Q1007.61 584.61 1007.19 584.16Q1006.76 583.72 1006.09 583.72L1006.09 583.72Q1005.40 583.72 1004.95 584.19Q1004.51 584.66 1004.51 585.52L1004.51 585.52L1004.51 592ZM1024.71 592.21L1024.71 592.21Q1023.00 592.21 1021.77 591.50Q1020.54 590.79 1019.88 589.52Q1019.22 588.26 1019.22 586.58L1019.22 586.58Q1019.22 584.90 1019.88 583.63Q1020.54 582.36 1021.77 581.65Q1023.00 580.95 1024.71 580.95L1024.71 580.95Q1026.42 580.95 1027.65 581.65Q1028.87 582.36 1029.53 583.63Q1030.19 584.90 1030.19 586.58L1030.19 586.58Q1030.19 588.26 1029.53 589.52Q1028.87 590.79 1027.65 591.50Q1026.42 592.21 1024.71 592.21ZM1024.71 589.60L1024.71 589.60Q1025.69 589.60 1026.21 588.76Q1026.72 587.93 1026.72 586.56L1026.72 586.56Q1026.72 585.19 1026.21 584.37Q1025.69 583.55 1024.71 583.55L1024.71 583.55Q1023.74 583.55 1023.22 584.37Q1022.70 585.19 1022.70 586.56L1022.70 586.56Q1022.70 587.93 1023.22 588.76Q1023.74 589.60 1024.71 589.60ZM1035.44 592L1032.03 592L1032.03 581.08L1035.34 581.08L1035.34 583.07L1035.46 583.07Q1035.75 582 1036.43 581.47Q1037.11 580.95 1038.00 580.95L1038.00 580.95Q1038.50 580.95 1038.97 581.06L1038.97 581.06L1038.97 584.03Q1038.73 583.94 1038.33 583.90Q1037.94 583.86 1037.62 583.86L1037.62 583.86Q1036.68 583.86 1036.06 584.46Q1035.44 585.07 1035.44 586.04L1035.44 586.04L1035.44 592ZM1043.83 592L1040.43 592L1040.43 581.08L1043.74 581.08L1043.74 583.07L1043.85 583.07Q1044.15 582 1044.83 581.47Q1045.50 580.95 1046.40 580.95L1046.40 580.95Q1046.90 580.95 1047.37 581.06L1047.37 581.06L1047.37 584.03Q1047.13 583.94 1046.73 583.90Q1046.33 583.86 1046.02 583.86L1046.02 583.86Q1045.07 583.86 1044.45 584.46Q1043.83 585.07 1043.83 586.04L1043.83 586.04L1043.83 592ZM1053.89 592.21L1053.89 592.21Q1052.18 592.21 1050.95 591.50Q1049.72 590.79 1049.06 589.52Q1048.40 588.26 1048.40 586.58L1048.40 586.58Q1048.40 584.90 1049.06 583.63Q1049.72 582.36 1050.95 581.65Q1052.18 580.95 1053.89 580.95L1053.89 580.95Q1055.60 580.95 1056.83 581.65Q1058.05 582.36 1058.71 583.63Q1059.37 584.90 1059.37 586.58L1059.37 586.58Q1059.37 588.26 1058.71 589.52Q1058.05 590.79 1056.83 591.50Q1055.60 592.21 1053.89 592.21ZM1053.89 589.60L1053.89 589.60Q1054.87 589.60 1055.39 588.76Q1055.90 587.93 1055.90 586.56L1055.90 586.56Q1055.90 585.19 1055.39 584.37Q1054.87 583.55 1053.89 583.55L1053.89 583.55Q1052.92 583.55 1052.40 584.37Q1051.88 585.19 1051.88 586.56L1051.88 586.56Q1051.88 587.93 1052.40 588.76Q1052.92 589.60 1053.89 589.60ZM1066.89 592L1063.41 592L1060.23 581.08L1063.79 581.08L1064.60 584.82Q1064.78 585.75 1065.00 586.79Q1065.21 587.82 1065.42 589.00L1065.42 589.00Q1065.63 587.83 1065.88 586.79Q1066.12 585.75 1066.33 584.82L1066.33 584.82L1067.20 581.08L1070.23 581.08L1071.07 584.82Q1071.28 585.76 1071.52 586.79Q1071.76 587.83 1071.99 589.02L1071.99 589.02Q1072.17 587.84 1072.38 586.80Q1072.58 585.76 1072.78 584.82L1072.78 584.82L1073.57 581.08L1077.19 581.08L1073.98 592L1070.50 592L1069.37 588.08Q1069.21 587.49 1069.03 586.67Q1068.86 585.86 1068.70 585.07L1068.70 585.07Q1068.53 585.86 1068.37 586.67Q1068.20 587.49 1068.02 588.08L1068.02 588.08L1066.89 592ZM1082.22 576.77L1085.13 576.77L1080.45 594.19L1077.54 594.19L1082.22 576.77ZM1089.52 592.20L1089.52 592.20Q1087.95 592.20 1086.93 591.39Q1085.92 590.59 1085.92 588.97L1085.92 588.97Q1085.92 587.76 1086.48 587.05Q1087.04 586.34 1087.96 585.99Q1088.88 585.65 1089.99 585.55L1089.99 585.55Q1091.37 585.44 1091.97 585.27Q1092.57 585.10 1092.57 584.59L1092.57 584.59L1092.57 584.55Q1092.57 583.98 1092.18 583.67Q1091.78 583.37 1091.09 583.37L1091.09 583.37Q1090.38 583.37 1089.92 583.67Q1089.46 583.97 1089.32 584.49L1089.32 584.49L1086.24 584.09Q1086.56 582.69 1087.81 581.82Q1089.07 580.95 1091.12 580.95L1091.12 580.95Q1092.48 580.95 1093.58 581.37Q1094.67 581.79 1095.32 582.60Q1095.97 583.42 1095.97 584.59L1095.97 584.59L1095.97 592L1092.77 592L1092.77 590.47L1092.68 590.47Q1091.77 592.20 1089.52 592.20ZM1090.55 589.94L1090.55 589.94Q1091.41 589.94 1092.01 589.43Q1092.60 588.92 1092.60 588.11L1092.60 588.11L1092.60 587.07Q1092.31 587.22 1091.75 587.33Q1091.20 587.44 1090.72 587.52L1090.72 587.52Q1089.15 587.75 1089.15 588.82L1089.15 588.82Q1089.15 589.36 1089.54 589.65Q1089.94 589.94 1090.55 589.94ZM1098.23 577.45L1101.64 577.45L1101.64 592L1098.23 592L1098.23 577.45ZM1110.45 592.16L1110.45 592.16Q1109.20 592.16 1108.45 591.57Q1107.70 590.97 1107.38 590.23L1107.38 590.23L1107.26 590.23L1107.26 592L1103.89 592L1103.89 577.45L1107.30 577.45L1107.30 582.96L1107.38 582.96Q1107.58 582.47 1107.97 582.00Q1108.37 581.54 1108.98 581.24Q1109.60 580.95 1110.46 580.95L1110.46 580.95Q1111.62 580.95 1112.61 581.55Q1113.60 582.16 1114.21 583.40Q1114.82 584.64 1114.82 586.55L1114.82 586.55Q1114.82 588.41 1114.23 589.65Q1113.64 590.90 1112.65 591.53Q1111.66 592.16 1110.45 592.16ZM1109.28 589.50L1109.28 589.50Q1110.27 589.50 1110.79 588.69Q1111.31 587.88 1111.31 586.55L1111.31 586.55Q1111.31 585.22 1110.79 584.42Q1110.27 583.61 1109.28 583.61L1109.28 583.61Q1108.31 583.61 1107.76 584.40Q1107.22 585.19 1107.22 586.55L1107.22 586.55Q1107.22 587.89 1107.76 588.69Q1108.31 589.50 1109.28 589.50ZM1120.44 592.14L1120.44 592.14Q1118.72 592.14 1117.68 591.01Q1116.65 589.89 1116.65 588.04L1116.65 588.04L1116.65 581.08L1120.05 581.08L1120.05 587.37Q1120.05 588.29 1120.53 588.81Q1121.00 589.33 1121.83 589.33L1121.83 589.33Q1122.67 589.33 1123.18 588.80Q1123.70 588.27 1123.70 587.31L1123.70 587.31L1123.70 581.08L1127.11 581.08L1127.11 592L1123.90 592L1123.85 589.64Q1123.41 590.78 1122.58 591.46Q1121.75 592.14 1120.44 592.14ZM1132.76 592L1129.35 592L1129.35 581.08L1132.49 581.08L1132.64 583.25Q1133.09 582.02 1133.95 581.48Q1134.80 580.94 1135.79 580.94L1135.79 580.94Q1136.82 580.94 1137.51 581.53Q1138.20 582.13 1138.60 583.46L1138.60 583.46Q1139.10 582.12 1140.07 581.53Q1141.04 580.94 1142.14 580.94L1142.14 580.94Q1143.68 580.94 1144.66 581.92Q1145.64 582.91 1145.64 584.64L1145.64 584.64L1145.64 592L1142.23 592L1142.23 585.41Q1142.23 584.58 1141.80 584.15Q1141.37 583.72 1140.70 583.72L1140.70 583.72Q1139.98 583.72 1139.56 584.19Q1139.14 584.67 1139.14 585.45L1139.14 585.45L1139.14 592L1135.87 592L1135.87 585.36Q1135.87 584.61 1135.44 584.16Q1135.02 583.72 1134.34 583.72L1134.34 583.72Q1133.65 583.72 1133.20 584.19Q1132.76 584.66 1132.76 585.52L1132.76 585.52L1132.76 592ZM1148.13 584.79L1154.84 584.79L1154.84 587.42L1148.13 587.42L1148.13 584.79ZM1160.38 592.20L1160.38 592.20Q1158.80 592.20 1157.79 591.39Q1156.78 590.59 1156.78 588.97L1156.78 588.97Q1156.78 587.76 1157.34 587.05Q1157.90 586.34 1158.82 585.99Q1159.74 585.65 1160.85 585.55L1160.85 585.55Q1162.23 585.44 1162.83 585.27Q1163.43 585.10 1163.43 584.59L1163.43 584.59L1163.43 584.55Q1163.43 583.98 1163.04 583.67Q1162.64 583.37 1161.95 583.37L1161.95 583.37Q1161.24 583.37 1160.78 583.67Q1160.32 583.97 1160.18 584.49L1160.18 584.49L1157.10 584.09Q1157.42 582.69 1158.67 581.82Q1159.93 580.95 1161.98 580.95L1161.98 580.95Q1163.34 580.95 1164.43 581.37Q1165.53 581.79 1166.18 582.60Q1166.83 583.42 1166.83 584.59L1166.83 584.59L1166.83 592L1163.63 592L1163.63 590.47L1163.54 590.47Q1162.63 592.20 1160.38 592.20ZM1161.41 589.94L1161.41 589.94Q1162.27 589.94 1162.87 589.43Q1163.46 588.92 1163.46 588.11L1163.46 588.11L1163.46 587.07Q1163.17 587.22 1162.61 587.33Q1162.06 587.44 1161.58 587.52L1161.58 587.52Q1160.01 587.75 1160.01 588.82L1160.01 588.82Q1160.01 589.36 1160.40 589.65Q1160.80 589.94 1161.41 589.94ZM1172.50 592L1169.09 592L1169.09 581.08L1172.40 581.08L1172.40 583.07L1172.52 583.07Q1172.81 582 1173.49 581.47Q1174.17 580.95 1175.06 580.95L1175.06 580.95Q1175.56 580.95 1176.03 581.06L1176.03 581.06L1176.03 584.03Q1175.79 583.94 1175.39 583.90Q1175.00 583.86 1174.68 583.86L1174.68 583.86Q1173.74 583.86 1173.12 584.46Q1172.50 585.07 1172.50 586.04L1172.50 586.04L1172.50 592ZM1181.41 581.08L1183.38 581.08L1183.38 583.61L1181.41 583.61L1181.41 588.66Q1181.41 589.51 1182.28 589.51L1182.28 589.51Q1182.46 589.51 1182.77 589.47Q1183.09 589.42 1183.23 589.39L1183.23 589.39L1183.67 591.87Q1183.09 592.04 1182.55 592.10Q1182.02 592.16 1181.54 592.16L1181.54 592.16Q1179.80 592.16 1178.90 591.34Q1178.00 590.53 1178.00 588.96L1178.00 588.96L1178.00 583.61L1176.56 583.61L1176.56 581.08L1178.00 581.08L1178.00 578.48L1181.41 578.48L1181.41 581.08Z"/>
</svg>
