<svg xmlns="http://www.w3.org/2000/svg" viewBox="0 0 1280 640" fill="none">
  <title>album-art — Fetch album &amp; artist cover art</title>
  <defs>
    <radialGradient id="g" cx="80%" cy="20%" r="80%">
      <stop offset="0%" stop-color="#f59e0b" stop-opacity="0.20"/>
      <stop offset="60%" stop-color="#0a0510" stop-opacity="0"/>
    </radialGradient>
    <pattern id="grid" width="40" height="40" patternUnits="userSpaceOnUse">
      <path d="M 40 0 L 0 0 0 40" fill="none" stroke="#ffffff" stroke-opacity="0.04" stroke-width="1"/>
    </pattern>
  </defs>
  <rect width="1280" height="640" fill="#0a0510"/>
  <rect width="1280" height="640" fill="url(#grid)"/>
  <rect width="1280" height="640" fill="url(#g)"/>

  <!-- Large decorative mark on right (low opacity) -->
  <g transform="translate(820, 120) scale(1.7)" opacity="0.10">
    <rect x="0" y="0" width="256" height="256" rx="56" fill="#f59e0b"/>
    
			<g fill="#ffffff">
				<ellipse cx="98" cy="170" rx="28" ry="20" transform="rotate(-20 98 170)"/>
				<rect x="120" y="70" width="10" height="106"/>
				<path d="M120 70 Q170 80 170 130 Q160 110 130 110 Z"/>
			</g>
  </g>

  <!-- Small primary mark, top-left -->
  <g transform="translate(96, 96) scale(0.47)">
    <rect x="0" y="0" width="256" height="256" rx="56" fill="#f59e0b"/>
    
			<g fill="#ffffff">
				<ellipse cx="98" cy="170" rx="28" ry="20" transform="rotate(-20 98 170)"/>
				<rect x="120" y="70" width="10" height="106"/>
				<path d="M120 70 Q170 80 170 130 Q160 110 130 110 Z"/>
			</g>
  </g>

  <!-- Package-type pill, top-right -->
  <g transform="translate(965, 80)">
    <rect x="0" y="0" width="219" height="36" rx="18" fill="#f59e0b" fill-opacity="0.16" stroke="#f59e0b" stroke-opacity="0.50" stroke-width="1"/>
    <g transform="translate(18, 24.5)"><path fill="#f59e0b" d="M5.13 0L1.25 0L1.25-16.01L5.41-16.01L9.88-8.78Q10.42-7.88 10.92-6.92Q11.43-5.95 11.93-4.64L11.93-4.64Q11.85-5.84 11.78-7.10Q11.71-8.36 11.71-9.20L11.71-9.20L11.71-16.01L15.60-16.01L15.60 0L11.42 0L7.33-6.63Q6.85-7.40 6.47-8.10Q6.09-8.80 5.72-9.56Q5.35-10.32 4.90-11.28L4.90-11.28Q5.00-9.86 5.06-8.62Q5.13-7.38 5.13-6.63L5.13-6.63L5.13 0ZM23.20 0L19.41 0L19.41-16.01L25.96-16.01Q27.77-16.01 29.08-15.31Q30.39-14.61 31.09-13.36Q31.80-12.12 31.80-10.47L31.80-10.47Q31.80-8.82 31.08-7.59Q30.36-6.36 29.02-5.68Q27.69-5.00 25.86-5.00L25.86-5.00L23.20-5.00L23.20 0ZM23.20-12.93L23.20-7.99L25.17-7.99Q26.50-7.99 27.18-8.67Q27.86-9.36 27.86-10.47L27.86-10.47Q27.86-11.60 27.18-12.27Q26.49-12.93 25.16-12.93L25.16-12.93L23.20-12.93ZM38.87 0L35.07 0L35.07-16.01L40.98-16.01L43.02-9.78Q43.18-9.23 43.39-8.35Q43.60-7.47 43.81-6.45Q44.03-5.42 44.22-4.47L44.22-4.47Q44.41-5.42 44.62-6.44Q44.82-7.46 45.03-8.34Q45.24-9.23 45.40-9.78L45.40-9.78L47.41-16.01L53.33-16.01L53.33 0L49.52 0L49.52-6.90Q49.52-7.51 49.55-8.50Q49.57-9.50 49.60-10.66Q49.64-11.82 49.66-12.89L49.66-12.89Q49.39-11.75 49.09-10.60Q48.80-9.45 48.53-8.48Q48.26-7.51 48.07-6.90L48.07-6.90L45.79 0L42.62 0L40.31-6.90Q40.13-7.49 39.86-8.42Q39.59-9.36 39.30-10.47Q39.00-11.58 38.73-12.71L38.73-12.71Q38.76-11.66 38.79-10.54Q38.82-9.42 38.85-8.46Q38.87-7.50 38.87-6.90L38.87-6.90L38.87 0ZM67.07 0L63.28 0L63.28-16.01L69.83-16.01Q71.63-16.01 72.95-15.31Q74.26-14.61 74.96-13.36Q75.66-12.12 75.66-10.47L75.66-10.47Q75.66-8.82 74.94-7.59Q74.22-6.36 72.89-5.68Q71.56-5.00 69.72-5.00L69.72-5.00L67.07-5.00L67.07 0ZM67.07-12.93L67.07-7.99L69.03-7.99Q70.37-7.99 71.05-8.67Q71.73-9.36 71.73-10.47L71.73-10.47Q71.73-11.60 71.04-12.27Q70.36-12.93 69.02-12.93L69.02-12.93L67.07-12.93ZM82.41 0L78.20 0L83.54-16.01L88.62-16.01L94.12 0L89.86 0L88.78-3.41L83.45-3.41L82.41 0ZM84.56-6.99L84.34-6.31L87.85-6.31L87.64-6.99Q87.22-8.37 86.82-9.87Q86.43-11.38 86.04-12.99L86.04-12.99Q85.67-11.37 85.31-9.86Q84.95-8.36 84.56-6.99L84.56-6.99ZM104.40 0.21L104.40 0.21Q102.24 0.21 100.52-0.74Q98.81-1.70 97.82-3.53Q96.82-5.36 96.82-7.99L96.82-7.99Q96.82-10.63 97.83-12.47Q98.83-14.31 100.55-15.26Q102.27-16.22 104.40-16.22L104.40-16.22Q106.30-16.22 107.81-15.53Q109.33-14.85 110.28-13.54Q111.24-12.22 111.46-10.36L111.46-10.36L107.63-10.36Q107.45-11.53 106.61-12.21Q105.78-12.89 104.49-12.89L104.49-12.89Q102.73-12.89 101.72-11.61Q100.70-10.32 100.70-7.99L100.70-7.99Q100.70-5.59 101.72-4.35Q102.74-3.12 104.47-3.12L104.47-3.12Q105.76-3.12 106.60-3.80Q107.44-4.48 107.64-5.65L107.64-5.65L111.47-5.65Q111.37-4.58 110.86-3.53Q110.35-2.49 109.46-1.64Q108.56-0.79 107.30-0.29Q106.03 0.21 104.40 0.21ZM118.66 0L114.87 0L114.87-16.01L118.66-16.01L118.66-12.07L118.60-8.21Q119.07-9.02 119.63-9.82Q120.19-10.62 120.99-11.63L120.99-11.63L124.56-16.01L129.11-16.01L123.31-9.10L129.34 0L124.88 0L120.70-6.61L118.66-4.30L118.66 0ZM135.90 0L131.69 0L137.03-16.01L142.11-16.01L147.61 0L143.35 0L142.27-3.41L136.94-3.41L135.90 0ZM138.05-6.99L137.83-6.31L141.35-6.31L141.13-6.99Q140.71-8.37 140.31-9.87Q139.92-11.38 139.53-12.99L139.53-12.99Q139.17-11.37 138.81-9.86Q138.45-8.36 138.05-6.99L138.05-6.99ZM158.00 0.21L158.00 0.21Q155.71 0.21 153.98-0.78Q152.25-1.77 151.28-3.61Q150.31-5.45 150.31-7.97L150.31-7.97Q150.31-10.59 151.34-12.43Q152.36-14.28 154.09-15.25Q155.81-16.22 157.95-16.22L157.95-16.22Q159.79-16.22 161.28-15.53Q162.78-14.83 163.73-13.60Q164.68-12.38 164.87-10.79L164.87-10.79L161.04-10.79Q160.77-11.78 159.99-12.34Q159.21-12.89 158.02-12.89L158.02-12.89Q156.27-12.89 155.23-11.62Q154.19-10.34 154.19-8.02L154.19-8.02Q154.19-5.68 155.20-4.40Q156.21-3.12 158.03-3.12L158.03-3.12Q159.62-3.12 160.48-3.88Q161.35-4.64 161.38-5.94L161.38-5.94L158.18-5.94L158.18-8.72L165.04-8.72L165.04-6.62Q165.04-4.48 164.13-2.95Q163.23-1.42 161.64-0.60Q160.05 0.21 158.00 0.21ZM179.65 0L168.55 0L168.55-16.01L179.66-16.01L179.66-12.91L172.35-12.91L172.35-9.60L179.08-9.60L179.08-6.57L172.35-6.57L172.35-3.09L179.65-3.09L179.65 0Z"/></g>
  </g>

  <!-- Wordmark + tagline -->
  <path fill="#fafafa" d="M133.44 361.56L133.44 361.56Q120.86 361.56 112.77 355.16Q104.69 348.75 104.69 335.78L104.69 335.78Q104.69 326.09 109.14 320.39Q113.59 314.69 120.98 311.95Q128.36 309.22 137.19 308.44L137.19 308.44Q148.28 307.50 153.09 306.13Q157.89 304.77 157.89 300.70L157.89 300.70L157.89 300.39Q157.89 295.86 154.73 293.40Q151.56 290.94 146.02 290.94L146.02 290.94Q140.31 290.94 136.64 293.36Q132.97 295.78 131.88 299.92L131.88 299.92L107.19 296.72Q109.77 285.55 119.80 278.55Q129.84 271.56 146.25 271.56L146.25 271.56Q157.11 271.56 165.90 274.92Q174.69 278.28 179.88 284.80Q185.08 291.33 185.08 300.70L185.08 300.70L185.08 360L159.45 360L159.45 347.73L158.75 347.73Q151.48 361.56 133.44 361.56ZM141.72 343.52L141.72 343.52Q148.59 343.52 153.36 339.45Q158.13 335.39 158.13 328.91L158.13 328.91L158.13 320.55Q155.78 321.80 151.33 322.66Q146.88 323.52 143.05 324.14L143.05 324.14Q130.47 326.02 130.47 334.53L130.47 334.53Q130.47 338.91 133.63 341.21Q136.80 343.52 141.72 343.52ZM195.13 243.59L222.39 243.59L222.39 360L195.13 360L195.13 243.59ZM284.86 361.25L284.86 361.25Q274.86 361.25 268.88 356.52Q262.91 351.80 260.33 345.86L260.33 345.86L259.39 345.86L259.39 360L232.44 360L232.44 243.59L259.70 243.59L259.70 287.66L260.33 287.66Q261.97 283.75 265.09 280.04Q268.22 276.33 273.14 273.95Q278.06 271.56 285.02 271.56L285.02 271.56Q294.23 271.56 302.16 276.41Q310.09 281.25 314.98 291.17Q319.86 301.09 319.86 316.41L319.86 316.41Q319.86 331.25 315.13 341.21Q310.41 351.17 302.48 356.21Q294.55 361.25 284.86 361.25ZM275.56 340L275.56 340Q283.45 340 287.63 333.52Q291.81 327.03 291.81 316.41L291.81 316.41Q291.81 305.78 287.63 299.34Q283.45 292.89 275.56 292.89L275.56 292.89Q267.75 292.89 263.41 299.22Q259.08 305.55 259.08 316.41L259.08 316.41Q259.08 327.11 263.41 333.55Q267.75 340 275.56 340ZM356.78 361.09L356.78 361.09Q343.03 361.09 334.75 352.11Q326.47 343.13 326.47 328.28L326.47 328.28L326.47 272.66L353.73 272.66L353.73 322.97Q353.73 330.31 357.52 334.49Q361.31 338.67 367.95 338.67L367.95 338.67Q374.67 338.67 378.77 334.41Q382.88 330.16 382.88 322.50L382.88 322.50L382.88 272.66L410.14 272.66L410.14 360L384.52 360L384.13 341.09Q380.61 350.23 373.97 355.66Q367.33 361.09 356.78 361.09ZM447.38 360L420.11 360L420.11 272.66L445.19 272.66L446.44 290Q450.03 280.16 456.87 275.82Q463.70 271.48 471.59 271.48L471.59 271.48Q479.88 271.48 485.38 276.25Q490.89 281.02 494.09 291.72L494.09 291.72Q498.08 280.94 505.85 276.21Q513.63 271.48 522.45 271.48L522.45 271.48Q534.72 271.48 542.57 279.38Q550.42 287.27 550.42 301.09L550.42 301.09L550.42 360L523.16 360L523.16 307.27Q523.16 300.63 519.72 297.19Q516.28 293.75 510.89 293.75L510.89 293.75Q505.11 293.75 501.75 297.54Q498.39 301.33 498.39 307.58L498.39 307.58L498.39 360L472.22 360L472.22 306.88Q472.22 300.86 468.82 297.30Q465.42 293.75 460.03 293.75L460.03 293.75Q454.48 293.75 450.93 297.50Q447.38 301.25 447.38 308.13L447.38 308.13L447.38 360ZM562.34 302.34L616.02 302.34L616.02 323.36L562.34 323.36L562.34 302.34ZM652.31 361.56L652.31 361.56Q639.73 361.56 631.65 355.16Q623.56 348.75 623.56 335.78L623.56 335.78Q623.56 326.09 628.02 320.39Q632.47 314.69 639.85 311.95Q647.23 309.22 656.06 308.44L656.06 308.44Q667.16 307.50 671.96 306.13Q676.77 304.77 676.77 300.70L676.77 300.70L676.77 300.39Q676.77 295.86 673.60 293.40Q670.44 290.94 664.89 290.94L664.89 290.94Q659.19 290.94 655.52 293.36Q651.84 295.78 650.75 299.92L650.75 299.92L626.06 296.72Q628.64 285.55 638.68 278.55Q648.72 271.56 665.13 271.56L665.13 271.56Q675.98 271.56 684.77 274.92Q693.56 278.28 698.76 284.80Q703.95 291.33 703.95 300.70L703.95 300.70L703.95 360L678.33 360L678.33 347.73L677.63 347.73Q670.36 361.56 652.31 361.56ZM660.59 343.52L660.59 343.52Q667.47 343.52 672.23 339.45Q677 335.39 677 328.91L677 328.91L677 320.55Q674.66 321.80 670.20 322.66Q665.75 323.52 661.92 324.14L661.92 324.14Q649.34 326.02 649.34 334.53L649.34 334.53Q649.34 338.91 652.51 341.21Q655.67 343.52 660.59 343.52ZM741.27 360L714 360L714 272.66L740.48 272.66L740.48 288.59L741.42 288.59Q743.77 280 749.20 275.78Q754.63 271.56 761.81 271.56L761.81 271.56Q765.80 271.56 769.55 272.50L769.55 272.50L769.55 296.25Q767.59 295.55 764.43 295.20Q761.27 294.84 758.77 294.84L758.77 294.84Q751.19 294.84 746.23 299.69Q741.27 304.53 741.27 312.34L741.27 312.34L741.27 360ZM804.59 272.66L820.30 272.66L820.30 292.89L804.59 292.89L804.59 333.28Q804.59 340.08 811.55 340.08L811.55 340.08Q812.95 340.08 815.49 339.73Q818.03 339.38 819.13 339.14L819.13 339.14L822.64 358.98Q818.03 360.31 813.73 360.78Q809.44 361.25 805.61 361.25L805.61 361.25Q791.70 361.25 784.52 354.73Q777.33 348.20 777.33 335.70L777.33 335.70L777.33 292.89L765.77 292.89L765.77 272.66L777.33 272.66L777.33 251.88L804.59 251.88L804.59 272.66Z"/>
  <path fill="#fbbf24" d="M107.33 410L101.81 410L101.81 386.72L117.64 386.72L117.64 391.22L107.33 391.22L107.33 397.13L116.63 397.13L116.63 401.53L107.33 401.53L107.33 410ZM128.35 410.33L128.35 410.33Q124.24 410.33 121.89 407.93Q119.54 405.53 119.54 401.33L119.54 401.33Q119.54 398.64 120.59 396.61Q121.65 394.58 123.59 393.45Q125.52 392.31 128.15 392.31L128.15 392.31Q130.60 392.31 132.50 393.34Q134.40 394.36 135.48 396.35Q136.57 398.34 136.57 401.22L136.57 401.22L136.57 402.59L124.90 402.59Q124.98 404.48 125.94 405.43Q126.90 406.38 128.45 406.38L128.45 406.38Q129.54 406.38 130.34 405.91Q131.13 405.45 131.46 404.58L131.46 404.58L136.32 405.38Q135.66 407.64 133.59 408.98Q131.52 410.33 128.35 410.33ZM124.93 399.42L124.93 399.42L131.40 399.42Q131.24 397.94 130.43 397.10Q129.62 396.27 128.20 396.27L128.20 396.27Q126.76 396.27 125.92 397.12Q125.09 397.97 124.93 399.42ZM145.39 392.53L148.53 392.53L148.53 396.58L145.39 396.58L145.39 404.66Q145.39 406.02 146.78 406.02L146.78 406.02Q147.06 406.02 147.57 405.95Q148.08 405.88 148.30 405.83L148.30 405.83L149.00 409.80Q148.08 410.06 147.22 410.16Q146.36 410.25 145.59 410.25L145.59 410.25Q142.81 410.25 141.38 408.95Q139.94 407.64 139.94 405.14L139.94 405.14L139.94 396.58L137.63 396.58L137.63 392.53L139.94 392.53L139.94 388.38L145.39 388.38L145.39 392.53ZM159.12 410.33L159.12 410.33Q156.38 410.33 154.42 409.20Q152.45 408.06 151.39 406.04Q150.34 404.02 150.34 401.33L150.34 401.33Q150.34 398.64 151.39 396.61Q152.45 394.58 154.42 393.45Q156.38 392.31 159.12 392.31L159.12 392.31Q162.46 392.31 164.61 393.98Q166.76 395.66 167.17 398.52L167.17 398.52L162.13 399.36Q161.87 397.98 161.13 397.23Q160.38 396.48 159.18 396.48L159.18 396.48Q157.62 396.48 156.76 397.76Q155.90 399.03 155.90 401.30L155.90 401.30Q155.90 403.55 156.76 404.85Q157.62 406.16 159.18 406.16L159.18 406.16Q160.38 406.16 161.14 405.38Q161.90 404.59 162.15 403.19L162.15 403.19L167.18 404Q166.77 406.94 164.63 408.63Q162.49 410.33 159.12 410.33ZM175.19 400.03L175.19 400.03L175.19 410L169.74 410L169.74 386.72L175.08 386.72L175.08 396Q175.78 394.31 177.09 393.31Q178.39 392.31 180.42 392.31L180.42 392.31Q183.16 392.31 184.81 394.11Q186.47 395.91 186.47 398.88L186.47 398.88L186.47 410L181.02 410L181.02 399.94Q181.02 398.47 180.27 397.63Q179.52 396.80 178.17 396.80L178.17 396.80Q176.85 396.80 176.02 397.65Q175.19 398.50 175.19 400.03ZM201.31 410.31L201.31 410.31Q198.80 410.31 197.18 409.03Q195.56 407.75 195.56 405.16L195.56 405.16Q195.56 403.22 196.46 402.08Q197.35 400.94 198.82 400.39Q200.30 399.84 202.06 399.69L202.06 399.69Q204.28 399.50 205.24 399.23Q206.21 398.95 206.21 398.14L206.21 398.14L206.21 398.08Q206.21 397.17 205.57 396.68Q204.94 396.19 203.83 396.19L203.83 396.19Q202.69 396.19 201.96 396.67Q201.22 397.16 201.00 397.98L201.00 397.98L196.06 397.34Q196.58 395.11 198.59 393.71Q200.60 392.31 203.88 392.31L203.88 392.31Q206.05 392.31 207.81 392.98Q209.56 393.66 210.60 394.96Q211.64 396.27 211.64 398.14L211.64 398.14L211.64 410L206.52 410L206.52 407.55L206.38 407.55Q204.92 410.31 201.31 410.31ZM202.97 406.70L202.97 406.70Q204.35 406.70 205.30 405.89Q206.25 405.08 206.25 403.78L206.25 403.78L206.25 402.11Q205.78 402.36 204.89 402.53Q204.00 402.70 203.24 402.83L203.24 402.83Q200.72 403.20 200.72 404.91L200.72 404.91Q200.72 405.78 201.35 406.24Q201.99 406.70 202.97 406.70ZM214.93 386.72L220.39 386.72L220.39 410L214.93 410L214.93 386.72ZM234.16 410.25L234.16 410.25Q232.16 410.25 230.96 409.30Q229.77 408.36 229.25 407.17L229.25 407.17L229.07 407.17L229.07 410L223.67 410L223.67 386.72L229.13 386.72L229.13 395.53L229.25 395.53Q229.58 394.75 230.21 394.01Q230.83 393.27 231.82 392.79Q232.80 392.31 234.19 392.31L234.19 392.31Q236.03 392.31 237.62 393.28Q239.21 394.25 240.18 396.23Q241.16 398.22 241.16 401.28L241.16 401.28Q241.16 404.25 240.21 406.24Q239.27 408.23 237.68 409.24Q236.10 410.25 234.16 410.25ZM232.30 406L232.30 406Q233.88 406 234.71 404.70Q235.55 403.41 235.55 401.28L235.55 401.28Q235.55 399.16 234.71 397.87Q233.88 396.58 232.30 396.58L232.30 396.58Q230.74 396.58 229.87 397.84Q229.00 399.11 229.00 401.28L229.00 401.28Q229.00 403.42 229.87 404.71Q230.74 406 232.30 406ZM249.82 410.22L249.82 410.22Q247.07 410.22 245.42 408.42Q243.76 406.63 243.76 403.66L243.76 403.66L243.76 392.53L249.21 392.53L249.21 402.59Q249.21 404.06 249.97 404.90Q250.73 405.73 252.06 405.73L252.06 405.73Q253.40 405.73 254.22 404.88Q255.04 404.03 255.04 402.50L255.04 402.50L255.04 392.53L260.50 392.53L260.50 410L255.37 410L255.29 406.22Q254.59 408.05 253.26 409.13Q251.93 410.22 249.82 410.22ZM269.22 410L263.77 410L263.77 392.53L268.78 392.53L269.03 396Q269.75 394.03 271.12 393.16Q272.49 392.30 274.07 392.30L274.07 392.30Q275.72 392.30 276.82 393.25Q277.93 394.20 278.57 396.34L278.57 396.34Q279.36 394.19 280.92 393.24Q282.47 392.30 284.24 392.30L284.24 392.30Q286.69 392.30 288.26 393.88Q289.83 395.45 289.83 398.22L289.83 398.22L289.83 410L284.38 410L284.38 399.45Q284.38 398.13 283.69 397.44Q283.00 396.75 281.93 396.75L281.93 396.75Q280.77 396.75 280.10 397.51Q279.43 398.27 279.43 399.52L279.43 399.52L279.43 410L274.19 410L274.19 399.38Q274.19 398.17 273.51 397.46Q272.83 396.75 271.75 396.75L271.75 396.75Q270.64 396.75 269.93 397.50Q269.22 398.25 269.22 399.63L269.22 399.63L269.22 410ZM307.04 410.36L307.04 410.36Q304.58 410.36 302.81 409.48Q301.04 408.61 300.08 407.13Q299.13 405.64 299.13 403.84L299.13 403.84Q299.13 401.81 300.26 400.45Q301.39 399.08 303.29 397.84L303.29 397.84Q302.44 396.73 301.83 395.42Q301.22 394.11 301.22 392.56L301.22 392.56Q301.22 390.84 302.04 389.45Q302.85 388.05 304.32 387.23Q305.80 386.41 307.77 386.41L307.77 386.41Q309.68 386.41 311.05 387.18Q312.43 387.95 313.18 389.24Q313.93 390.53 313.93 392.09L313.93 392.09Q313.93 393.72 313.11 395.08Q312.30 396.44 310.83 397.50L310.83 397.50L309.58 398.39L313.05 402.31Q313.52 401.45 313.79 400.45Q314.07 399.44 314.07 398.31L314.07 398.31L318.49 398.31Q318.49 403.05 316.30 405.97L316.30 405.97L319.88 410L314.30 410L312.99 408.56Q311.66 409.50 310.09 409.93Q308.52 410.36 307.04 410.36ZM310.02 405.33L310.02 405.33L306.00 400.95Q305.27 401.48 304.82 402.08Q304.38 402.67 304.38 403.53L304.38 403.53Q304.38 404.69 305.19 405.37Q306.00 406.05 307.33 406.05L307.33 406.05Q308.69 406.05 310.02 405.33ZM307.04 395.44L307.04 395.44L308.18 394.72Q309.72 393.72 309.72 392.42L309.72 392.42Q309.72 391.73 309.23 391.23Q308.74 390.73 307.79 390.73L307.79 390.73Q306.86 390.73 306.32 391.26Q305.77 391.78 305.77 392.63L305.77 392.63Q305.77 393.31 306.11 394Q306.44 394.69 307.04 395.44ZM332.91 410.31L332.91 410.31Q330.40 410.31 328.78 409.03Q327.16 407.75 327.16 405.16L327.16 405.16Q327.16 403.22 328.05 402.08Q328.94 400.94 330.42 400.39Q331.90 399.84 333.66 399.69L333.66 399.69Q335.88 399.50 336.84 399.23Q337.80 398.95 337.80 398.14L337.80 398.14L337.80 398.08Q337.80 397.17 337.17 396.68Q336.54 396.19 335.43 396.19L335.43 396.19Q334.29 396.19 333.55 396.67Q332.82 397.16 332.60 397.98L332.60 397.98L327.66 397.34Q328.18 395.11 330.18 393.71Q332.19 392.31 335.47 392.31L335.47 392.31Q337.65 392.31 339.40 392.98Q341.16 393.66 342.20 394.96Q343.24 396.27 343.24 398.14L343.24 398.14L343.24 410L338.11 410L338.11 407.55L337.97 407.55Q336.52 410.31 332.91 410.31ZM334.57 406.70L334.57 406.70Q335.94 406.70 336.90 405.89Q337.85 405.08 337.85 403.78L337.85 403.78L337.85 402.11Q337.38 402.36 336.49 402.53Q335.60 402.70 334.83 402.83L334.83 402.83Q332.32 403.20 332.32 404.91L332.32 404.91Q332.32 405.78 332.95 406.24Q333.58 406.70 334.57 406.70ZM351.98 410L346.53 410L346.53 392.53L351.83 392.53L351.83 395.72L352.01 395.72Q352.48 394 353.57 393.16Q354.65 392.31 356.09 392.31L356.09 392.31Q356.89 392.31 357.64 392.50L357.64 392.50L357.64 397.25Q357.25 397.11 356.61 397.04Q355.98 396.97 355.48 396.97L355.48 396.97Q353.97 396.97 352.97 397.94Q351.98 398.91 351.98 400.47L351.98 400.47L351.98 410ZM365.93 392.53L369.07 392.53L369.07 396.58L365.93 396.58L365.93 404.66Q365.93 406.02 367.32 406.02L367.32 406.02Q367.60 406.02 368.11 405.95Q368.61 405.88 368.83 405.83L368.83 405.83L369.54 409.80Q368.61 410.06 367.76 410.16Q366.90 410.25 366.13 410.25L366.13 410.25Q363.35 410.25 361.91 408.95Q360.47 407.64 360.47 405.14L360.47 405.14L360.47 396.58L358.16 396.58L358.16 392.53L360.47 392.53L360.47 388.38L365.93 388.38L365.93 392.53ZM377.00 410L371.54 410L371.54 392.53L377.00 392.53L377.00 410ZM374.26 390.48L374.26 390.48Q373.11 390.48 372.28 389.72Q371.45 388.95 371.45 387.86L371.45 387.86Q371.45 386.77 372.28 386Q373.11 385.23 374.26 385.23L374.26 385.23Q375.44 385.23 376.26 386Q377.09 386.77 377.09 387.86L377.09 387.86Q377.09 388.95 376.26 389.72Q375.44 390.48 374.26 390.48ZM387.65 410.33L387.65 410.33Q384.29 410.33 382.12 408.91Q379.96 407.50 379.51 405L379.51 405L384.57 404.20Q384.90 405.34 385.68 405.92Q386.46 406.50 387.85 406.50L387.85 406.50Q388.99 406.50 389.65 406.10Q390.30 405.70 390.30 405.05L390.30 405.05Q390.30 403.91 388.16 403.48L388.16 403.48L385.12 402.89Q379.94 401.91 379.94 397.86L379.94 397.86Q379.94 395.25 382.03 393.78Q384.12 392.31 387.63 392.31L387.63 392.31Q390.91 392.31 392.90 393.61Q394.88 394.91 395.33 397.16L395.33 397.16L390.52 397.92Q389.99 396.06 387.72 396.06L387.72 396.06Q386.74 396.06 386.06 396.46Q385.38 396.86 385.38 397.53L385.38 397.53Q385.38 398.06 385.80 398.46Q386.22 398.86 387.35 399.08L387.35 399.08L390.69 399.70Q395.83 400.67 395.83 404.42L395.83 404.42Q395.83 406.22 394.78 407.55Q393.72 408.88 391.88 409.60Q390.04 410.33 387.65 410.33ZM404.59 392.53L407.73 392.53L407.73 396.58L404.59 396.58L404.59 404.66Q404.59 406.02 405.98 406.02L405.98 406.02Q406.26 406.02 406.77 405.95Q407.28 405.88 407.50 405.83L407.50 405.83L408.20 409.80Q407.28 410.06 406.42 410.16Q405.56 410.25 404.80 410.25L404.80 410.25Q402.01 410.25 400.58 408.95Q399.14 407.64 399.14 405.14L399.14 405.14L399.14 396.58L396.83 396.58L396.83 392.53L399.14 392.53L399.14 388.38L404.59 388.38L404.59 392.53ZM425.00 410.33L425.00 410.33Q422.26 410.33 420.30 409.20Q418.33 408.06 417.27 406.04Q416.22 404.02 416.22 401.33L416.22 401.33Q416.22 398.64 417.27 396.61Q418.33 394.58 420.30 393.45Q422.26 392.31 425.00 392.31L425.00 392.31Q428.34 392.31 430.49 393.98Q432.64 395.66 433.05 398.52L433.05 398.52L428.01 399.36Q427.75 397.98 427.01 397.23Q426.26 396.48 425.06 396.48L425.06 396.48Q423.50 396.48 422.64 397.76Q421.78 399.03 421.78 401.30L421.78 401.30Q421.78 403.55 422.64 404.85Q423.50 406.16 425.06 406.16L425.06 406.16Q426.26 406.16 427.02 405.38Q427.78 404.59 428.03 403.19L428.03 403.19L433.06 404Q432.66 406.94 430.51 408.63Q428.37 410.33 425.00 410.33ZM443.73 410.33L443.73 410.33Q440.99 410.33 439.02 409.20Q437.05 408.06 436.00 406.04Q434.94 404.02 434.94 401.33L434.94 401.33Q434.94 398.64 436.00 396.61Q437.05 394.58 439.02 393.45Q440.99 392.31 443.73 392.31L443.73 392.31Q446.46 392.31 448.42 393.45Q450.38 394.58 451.44 396.61Q452.49 398.64 452.49 401.33L452.49 401.33Q452.49 404.02 451.44 406.04Q450.38 408.06 448.42 409.20Q446.46 410.33 443.73 410.33ZM443.73 406.16L443.73 406.16Q445.29 406.16 446.12 404.82Q446.94 403.48 446.94 401.30L446.94 401.30Q446.94 399.11 446.12 397.80Q445.29 396.48 443.73 396.48L443.73 396.48Q442.16 396.48 441.34 397.80Q440.51 399.11 440.51 401.30L440.51 401.30Q440.51 403.48 441.34 404.82Q442.16 406.16 443.73 406.16ZM466.30 410L459.98 410L453.66 392.53L459.41 392.53L462.02 401.08Q462.37 402.25 462.66 403.45Q462.95 404.66 463.23 405.92L463.23 405.92Q463.48 404.66 463.77 403.46Q464.05 402.27 464.41 401.08L464.41 401.08L466.97 392.53L472.66 392.53L466.30 410ZM482.62 410.33L482.62 410.33Q478.51 410.33 476.16 407.93Q473.80 405.53 473.80 401.33L473.80 401.33Q473.80 398.64 474.86 396.61Q475.91 394.58 477.85 393.45Q479.79 392.31 482.41 392.31L482.41 392.31Q484.87 392.31 486.77 393.34Q488.66 394.36 489.75 396.35Q490.84 398.34 490.84 401.22L490.84 401.22L490.84 402.59L479.16 402.59Q479.24 404.48 480.20 405.43Q481.16 406.38 482.71 406.38L482.71 406.38Q483.80 406.38 484.60 405.91Q485.40 405.45 485.73 404.58L485.73 404.58L490.59 405.38Q489.93 407.64 487.86 408.98Q485.79 410.33 482.62 410.33ZM479.20 399.42L479.20 399.42L485.66 399.42Q485.51 397.94 484.70 397.10Q483.88 396.27 482.46 396.27L482.46 396.27Q481.02 396.27 480.19 397.12Q479.35 397.97 479.20 399.42ZM498.83 410L493.38 410L493.38 392.53L498.67 392.53L498.67 395.72L498.86 395.72Q499.33 394 500.41 393.16Q501.50 392.31 502.94 392.31L502.94 392.31Q503.73 392.31 504.48 392.50L504.48 392.50L504.48 397.25Q504.09 397.11 503.46 397.04Q502.83 396.97 502.33 396.97L502.33 396.97Q500.81 396.97 499.82 397.94Q498.83 398.91 498.83 400.47L498.83 400.47L498.83 410ZM518.06 410.31L518.06 410.31Q515.55 410.31 513.93 409.03Q512.31 407.75 512.31 405.16L512.31 405.16Q512.31 403.22 513.20 402.08Q514.09 400.94 515.57 400.39Q517.05 399.84 518.81 399.69L518.81 399.69Q521.03 399.50 521.99 399.23Q522.95 398.95 522.95 398.14L522.95 398.14L522.95 398.08Q522.95 397.17 522.32 396.68Q521.69 396.19 520.58 396.19L520.58 396.19Q519.44 396.19 518.70 396.67Q517.97 397.16 517.75 397.98L517.75 397.98L512.81 397.34Q513.33 395.11 515.34 393.71Q517.34 392.31 520.63 392.31L520.63 392.31Q522.80 392.31 524.56 392.98Q526.31 393.66 527.35 394.96Q528.39 396.27 528.39 398.14L528.39 398.14L528.39 410L523.27 410L523.27 407.55L523.13 407.55Q521.67 410.31 518.06 410.31ZM519.72 406.70L519.72 406.70Q521.09 406.70 522.05 405.89Q523.00 405.08 523.00 403.78L523.00 403.78L523.00 402.11Q522.53 402.36 521.64 402.53Q520.75 402.70 519.99 402.83L519.99 402.83Q517.47 403.20 517.47 404.91L517.47 404.91Q517.47 405.78 518.10 406.24Q518.74 406.70 519.72 406.70ZM537.13 410L531.68 410L531.68 392.53L536.98 392.53L536.98 395.72L537.17 395.72Q537.63 394 538.72 393.16Q539.81 392.31 541.24 392.31L541.24 392.31Q542.04 392.31 542.79 392.50L542.79 392.50L542.79 397.25Q542.40 397.11 541.77 397.04Q541.13 396.97 540.63 396.97L540.63 396.97Q539.12 396.97 538.13 397.94Q537.13 398.91 537.13 400.47L537.13 400.47L537.13 410ZM551.08 392.53L554.22 392.53L554.22 396.58L551.08 396.58L551.08 404.66Q551.08 406.02 552.47 406.02L552.47 406.02Q552.75 406.02 553.26 405.95Q553.77 405.88 553.99 405.83L553.99 405.83L554.69 409.80Q553.77 410.06 552.91 410.16Q552.05 410.25 551.28 410.25L551.28 410.25Q548.50 410.25 547.06 408.95Q545.63 407.64 545.63 405.14L545.63 405.14L545.63 396.58L543.31 396.58L543.31 392.53L545.63 392.53L545.63 388.38L551.08 388.38L551.08 392.53Z"/>

  <!-- Terminal-style install line -->
  <g>
    <rect x="100" y="480" width="468" height="48" rx="10" fill="#1a0b1f" stroke="#f59e0b" stroke-opacity="0.35" stroke-width="1"/>
    <path fill="#f59e0b" d="M119.93 514.20L118.07 514.20L118.07 510.24Q115.13 510 113.44 508.38Q111.74 506.76 111.71 504.12L111.71 504.12L115.46 504.12Q115.46 505.23 116.15 505.96Q116.84 506.70 118.07 506.94L118.07 506.94L118.07 500.58L117.53 500.43Q114.95 499.77 113.56 498.06Q112.16 496.35 112.16 493.92L112.16 493.92Q112.16 491.37 113.75 489.74Q115.34 488.10 118.07 487.86L118.07 487.86L118.07 483.90L119.93 483.90L119.93 487.83Q122.72 488.07 124.33 489.68Q125.93 491.28 125.96 493.83L125.96 493.83L122.21 493.83Q122.21 491.61 119.93 491.16L119.93 491.16L119.93 497.22L120.92 497.49Q123.53 498.15 124.91 499.85Q126.29 501.54 126.29 504.03L126.29 504.03Q126.29 506.64 124.56 508.33Q122.84 510.03 119.93 510.27L119.93 510.27L119.93 514.20ZM115.91 493.71L115.91 493.71Q115.91 494.76 116.47 495.54Q117.02 496.32 118.07 496.68L118.07 496.68L118.07 491.16Q115.91 491.58 115.91 493.71ZM119.93 501.18L119.93 506.97Q121.16 506.79 121.85 506.06Q122.54 505.32 122.54 504.18L122.54 504.18Q122.54 503.07 121.85 502.26Q121.16 501.45 119.93 501.18L119.93 501.18Z"/>
    <path fill="#fafafa" d="M144.06 510L140.31 510L140.31 493.50L143.97 493.50L143.97 496.59Q144.27 495.03 145.44 494.12Q146.61 493.20 148.41 493.20L148.41 493.20Q150.84 493.20 152.29 494.82Q153.75 496.44 153.75 499.17L153.75 499.17L153.75 510L150 510L150 499.62Q150 498.09 149.21 497.26Q148.41 496.44 147.06 496.44L147.06 496.44Q145.65 496.44 144.85 497.28Q144.06 498.12 144.06 499.68L144.06 499.68L144.06 510ZM162.06 515.40L158.31 515.40L158.31 493.50L161.97 493.50L161.97 496.53Q162.42 494.97 163.59 494.08Q164.76 493.20 166.50 493.20L166.50 493.20Q168.09 493.20 169.31 493.98Q170.52 494.76 171.19 496.19Q171.87 497.61 171.87 499.50L171.87 499.50L171.87 503.97Q171.87 506.82 170.40 508.56Q168.93 510.30 166.50 510.30L166.50 510.30Q164.76 510.30 163.57 509.40Q162.39 508.50 161.94 506.88L161.94 506.88L162.06 510.78L162.06 515.40ZM165.09 507.06L165.09 507.06Q166.53 507.06 167.32 506.28Q168.12 505.50 168.12 503.88L168.12 503.88L168.12 499.62Q168.12 498 167.32 497.22Q166.53 496.44 165.09 496.44L165.09 496.44Q163.65 496.44 162.85 497.31Q162.06 498.18 162.06 499.77L162.06 499.77L162.06 503.73Q162.06 505.32 162.85 506.19Q163.65 507.06 165.09 507.06ZM178.71 510L175.41 510L175.41 493.50L178.53 493.50L178.53 495.90L178.62 495.90Q178.71 494.70 179.46 493.95Q180.21 493.20 181.35 493.20L181.35 493.20Q182.46 493.20 183.24 493.90Q184.02 494.61 184.29 495.81L184.29 495.81Q184.41 494.61 185.18 493.90Q185.94 493.20 187.11 493.20L187.11 493.20Q188.61 493.20 189.60 494.38Q190.59 495.57 190.59 497.43L190.59 497.43L190.59 510L187.29 510L187.29 497.70Q187.29 496.89 186.91 496.43Q186.54 495.96 185.85 495.96L185.85 495.96Q184.50 495.96 184.50 497.70L184.50 497.70L184.50 510L181.50 510L181.50 497.70Q181.50 496.89 181.16 496.43Q180.81 495.96 180.15 495.96L180.15 495.96Q178.71 495.96 178.71 497.70L178.71 497.70L178.71 510ZM226.74 510L212.28 510L212.28 506.61L217.92 506.61L217.92 496.89L212.88 496.89L212.88 493.50L221.67 493.50L221.67 506.61L226.74 506.61L226.74 510ZM219.54 490.74L219.54 490.74Q218.40 490.74 217.74 490.15Q217.08 489.57 217.08 488.58L217.08 488.58Q217.08 487.59 217.74 487.00Q218.40 486.42 219.54 486.42L219.54 486.42Q220.68 486.42 221.34 487.00Q222 487.59 222 488.58L222 488.58Q222 489.57 221.34 490.15Q220.68 490.74 219.54 490.74ZM234.06 510L230.31 510L230.31 493.50L233.97 493.50L233.97 496.59Q234.27 495.03 235.44 494.12Q236.61 493.20 238.41 493.20L238.41 493.20Q240.84 493.20 242.29 494.82Q243.75 496.44 243.75 499.17L243.75 499.17L243.75 510L240 510L240 499.62Q240 498.09 239.21 497.26Q238.41 496.44 237.06 496.44L237.06 496.44Q235.65 496.44 234.85 497.28Q234.06 498.12 234.06 499.68L234.06 499.68L234.06 510ZM255.63 510.27L254.31 510.27Q251.37 510.27 249.66 508.94Q247.95 507.60 247.95 505.32L247.95 505.32L251.64 505.32Q251.64 506.28 252.34 506.79Q253.05 507.30 254.31 507.30L254.31 507.30L255.63 507.30Q256.98 507.30 257.71 506.79Q258.45 506.28 258.45 505.32L258.45 505.32Q258.45 504.42 257.94 503.99Q257.43 503.55 256.38 503.40L256.38 503.40L252.27 502.86Q250.29 502.59 249.22 501.33Q248.16 500.07 248.16 498.06L248.16 498.06Q248.16 495.72 249.72 494.48Q251.28 493.23 254.22 493.23L254.22 493.23L255.60 493.23Q258.36 493.23 260.04 494.49Q261.72 495.75 261.78 497.85L261.78 497.85L258.06 497.85Q258.03 497.07 257.37 496.61Q256.71 496.14 255.60 496.14L255.60 496.14L254.22 496.14Q253.02 496.14 252.39 496.63Q251.76 497.13 251.76 497.97L251.76 497.97Q251.76 498.72 252.22 499.08Q252.69 499.44 253.59 499.53L253.59 499.53L257.46 500.07Q259.74 500.34 260.89 501.68Q262.05 503.01 262.05 505.26L262.05 505.26Q262.05 507.66 260.42 508.96Q258.78 510.27 255.63 510.27L255.63 510.27ZM279.81 510L274.65 510Q272.34 510 270.98 508.67Q269.61 507.33 269.61 505.05L269.61 505.05L269.61 496.89L265.05 496.89L265.05 493.50L269.61 493.50L269.61 488.85L273.39 488.85L273.39 493.50L279.96 493.50L279.96 496.89L273.39 496.89L273.39 504.96Q273.39 505.68 273.80 506.14Q274.20 506.61 274.92 506.61L274.92 506.61L279.81 506.61L279.81 510ZM289.17 510.30L289.17 510.30Q286.65 510.30 285.19 508.88Q283.74 507.45 283.74 505.14L283.74 505.14Q283.74 502.74 285.39 501.31Q287.04 499.89 289.92 499.89L289.92 499.89L293.94 499.89L293.94 498.72Q293.94 496.23 291.03 496.23L291.03 496.23Q289.71 496.23 288.93 496.74Q288.15 497.25 288.06 498.18L288.06 498.18L284.46 498.18Q284.58 495.96 286.33 494.58Q288.09 493.20 291.06 493.20L291.06 493.20Q294.21 493.20 295.95 494.67Q297.69 496.14 297.69 498.81L297.69 498.81L297.69 510L294.03 510L294.03 506.91Q293.82 508.50 292.53 509.40Q291.24 510.30 289.17 510.30ZM290.37 507.24L290.37 507.24Q292.02 507.24 292.98 506.43Q293.94 505.62 293.94 504.27L293.94 504.27L293.94 502.32L290.10 502.32Q288.87 502.32 288.15 503.01Q287.43 503.70 287.43 504.78L287.43 504.78Q287.43 505.89 288.19 506.56Q288.96 507.24 290.37 507.24ZM316.77 510L311.67 510Q309.21 510 307.73 508.53Q306.24 507.06 306.24 504.66L306.24 504.66L306.24 491.49L300.81 491.49L300.81 488.10L309.99 488.10L309.99 504.57Q309.99 505.50 310.51 506.06Q311.04 506.61 311.94 506.61L311.94 506.61L316.77 506.61L316.77 510ZM334.77 510L329.67 510Q327.21 510 325.73 508.53Q324.24 507.06 324.24 504.66L324.24 504.66L324.24 491.49L318.81 491.49L318.81 488.10L327.99 488.10L327.99 504.57Q327.99 505.50 328.51 506.06Q329.04 506.61 329.94 506.61L329.94 506.61L334.77 506.61L334.77 510ZM361.17 510.30L361.17 510.30Q358.65 510.30 357.19 508.88Q355.74 507.45 355.74 505.14L355.74 505.14Q355.74 502.74 357.39 501.31Q359.04 499.89 361.92 499.89L361.92 499.89L365.94 499.89L365.94 498.72Q365.94 496.23 363.03 496.23L363.03 496.23Q361.71 496.23 360.93 496.74Q360.15 497.25 360.06 498.18L360.06 498.18L356.46 498.18Q356.58 495.96 358.33 494.58Q360.09 493.20 363.06 493.20L363.06 493.20Q366.21 493.20 367.95 494.67Q369.69 496.14 369.69 498.81L369.69 498.81L369.69 510L366.03 510L366.03 506.91Q365.82 508.50 364.53 509.40Q363.24 510.30 361.17 510.30ZM362.37 507.24L362.37 507.24Q364.02 507.24 364.98 506.43Q365.94 505.62 365.94 504.27L365.94 504.27L365.94 502.32L362.10 502.32Q360.87 502.32 360.15 503.01Q359.43 503.70 359.43 504.78L359.43 504.78Q359.43 505.89 360.19 506.56Q360.96 507.24 362.37 507.24ZM388.77 510L383.67 510Q381.21 510 379.73 508.53Q378.24 507.06 378.24 504.66L378.24 504.66L378.24 491.49L372.81 491.49L372.81 488.10L381.99 488.10L381.99 504.57Q381.99 505.50 382.51 506.06Q383.04 506.61 383.94 506.61L383.94 506.61L388.77 506.61L388.77 510ZM400.50 510.30L400.50 510.30Q398.76 510.30 397.59 509.43Q396.42 508.56 395.97 507L395.97 507L395.97 510L392.31 510L392.31 488.10L396.06 488.10L396.06 492.72L395.94 496.50Q396.42 494.94 397.61 494.07Q398.79 493.20 400.50 493.20L400.50 493.20Q402.93 493.20 404.40 494.91Q405.87 496.62 405.87 499.53L405.87 499.53L405.87 504Q405.87 506.88 404.38 508.59Q402.90 510.30 400.50 510.30ZM399.09 507.06L399.09 507.06Q400.53 507.06 401.32 506.28Q402.12 505.50 402.12 503.88L402.12 503.88L402.12 499.62Q402.12 498 401.32 497.22Q400.53 496.44 399.09 496.44L399.09 496.44Q397.65 496.44 396.86 497.31Q396.06 498.18 396.06 499.77L396.06 499.77L396.06 503.73Q396.06 505.32 396.86 506.19Q397.65 507.06 399.09 507.06ZM417 510.30L417 510.30Q413.85 510.30 412.05 508.55Q410.25 506.79 410.25 503.76L410.25 503.76L410.25 493.50L414 493.50L414 503.73Q414 505.29 414.78 506.16Q415.56 507.03 417 507.03L417 507.03Q418.41 507.03 419.20 506.16Q420 505.29 420 503.73L420 503.73L420 493.50L423.75 493.50L423.75 503.76Q423.75 506.79 421.92 508.55Q420.09 510.30 417 510.30ZM430.71 510L427.41 510L427.41 493.50L430.53 493.50L430.53 495.90L430.62 495.90Q430.71 494.70 431.46 493.95Q432.21 493.20 433.35 493.20L433.35 493.20Q434.46 493.20 435.24 493.90Q436.02 494.61 436.29 495.81L436.29 495.81Q436.41 494.61 437.18 493.90Q437.94 493.20 439.11 493.20L439.11 493.20Q440.61 493.20 441.60 494.38Q442.59 495.57 442.59 497.43L442.59 497.43L442.59 510L439.29 510L439.29 497.70Q439.29 496.89 438.92 496.43Q438.54 495.96 437.85 495.96L437.85 495.96Q436.50 495.96 436.50 497.70L436.50 497.70L436.50 510L433.50 510L433.50 497.70Q433.50 496.89 433.15 496.43Q432.81 495.96 432.15 495.96L432.15 495.96Q430.71 495.96 430.71 497.70L430.71 497.70L430.71 510ZM457.80 501.84L448.20 501.84L448.20 498.36L457.80 498.36L457.80 501.84ZM469.17 510.30L469.17 510.30Q466.65 510.30 465.19 508.88Q463.74 507.45 463.74 505.14L463.74 505.14Q463.74 502.74 465.39 501.31Q467.04 499.89 469.92 499.89L469.92 499.89L473.94 499.89L473.94 498.72Q473.94 496.23 471.03 496.23L471.03 496.23Q469.71 496.23 468.93 496.74Q468.15 497.25 468.06 498.18L468.06 498.18L464.46 498.18Q464.58 495.96 466.33 494.58Q468.09 493.20 471.06 493.20L471.06 493.20Q474.21 493.20 475.95 494.67Q477.69 496.14 477.69 498.81L477.69 498.81L477.69 510L474.03 510L474.03 506.91Q473.82 508.50 472.53 509.40Q471.24 510.30 469.17 510.30ZM470.37 507.24L470.37 507.24Q472.02 507.24 472.98 506.43Q473.94 505.62 473.94 504.27L473.94 504.27L473.94 502.32L470.10 502.32Q468.87 502.32 468.15 503.01Q467.43 503.70 467.43 504.78L467.43 504.78Q467.43 505.89 468.19 506.56Q468.96 507.24 470.37 507.24ZM486.66 510L482.91 510L482.91 493.50L486.57 493.50L486.57 496.71Q486.87 495.09 488.06 494.14Q489.24 493.20 491.13 493.20L491.13 493.20Q493.65 493.20 495.06 494.82Q496.47 496.44 496.47 499.35L496.47 499.35L496.47 500.91L492.72 500.91L492.72 499.53Q492.72 498.03 491.94 497.24Q491.16 496.44 489.72 496.44L489.72 496.44Q488.22 496.44 487.44 497.34Q486.66 498.24 486.66 499.89L486.66 499.89L486.66 510ZM513.81 510L508.65 510Q506.34 510 504.98 508.67Q503.61 507.33 503.61 505.05L503.61 505.05L503.61 496.89L499.05 496.89L499.05 493.50L503.61 493.50L503.61 488.85L507.39 488.85L507.39 493.50L513.96 493.50L513.96 496.89L507.39 496.89L507.39 504.96Q507.39 505.68 507.80 506.14Q508.20 506.61 508.92 506.61L508.92 506.61L513.81 506.61L513.81 510Z"/>
  </g>

  <path fill="#6b6275" d="M959.40 577.45L962.81 577.45L962.81 592L959.40 592L959.40 577.45ZM968.12 592.20L968.12 592.20Q966.55 592.20 965.54 591.39Q964.53 590.59 964.53 588.97L964.53 588.97Q964.53 587.76 965.08 587.05Q965.64 586.34 966.56 585.99Q967.49 585.65 968.59 585.55L968.59 585.55Q969.98 585.44 970.58 585.27Q971.18 585.10 971.18 584.59L971.18 584.59L971.18 584.55Q971.18 583.98 970.78 583.67Q970.39 583.37 969.69 583.37L969.69 583.37Q968.98 583.37 968.52 583.67Q968.06 583.97 967.93 584.49L967.93 584.49L964.84 584.09Q965.16 582.69 966.42 581.82Q967.67 580.95 969.72 580.95L969.72 580.95Q971.08 580.95 972.18 581.37Q973.28 581.79 973.93 582.60Q974.58 583.42 974.58 584.59L974.58 584.59L974.58 592L971.37 592L971.37 590.47L971.29 590.47Q970.38 592.20 968.12 592.20ZM969.16 589.94L969.16 589.94Q970.02 589.94 970.61 589.43Q971.21 588.92 971.21 588.11L971.21 588.11L971.21 587.07Q970.91 587.22 970.36 587.33Q969.80 587.44 969.32 587.52L969.32 587.52Q967.75 587.75 967.75 588.82L967.75 588.82Q967.75 589.36 968.15 589.65Q968.54 589.94 969.16 589.94ZM981.90 592.21L981.90 592.21Q980.19 592.21 978.96 591.50Q977.73 590.79 977.07 589.52Q976.41 588.26 976.41 586.58L976.41 586.58Q976.41 584.90 977.07 583.63Q977.73 582.36 978.96 581.65Q980.19 580.95 981.90 580.95L981.90 580.95Q983.99 580.95 985.33 581.99Q986.68 583.04 986.93 584.82L986.93 584.82L983.79 585.35Q983.62 584.49 983.16 584.02Q982.69 583.55 981.94 583.55L981.94 583.55Q980.96 583.55 980.43 584.35Q979.89 585.14 979.89 586.56L979.89 586.56Q979.89 587.97 980.43 588.78Q980.96 589.60 981.94 589.60L981.94 589.60Q982.69 589.60 983.17 589.11Q983.64 588.62 983.79 587.74L983.79 587.74L986.94 588.25Q986.69 590.09 985.35 591.15Q984.01 592.21 981.90 592.21ZM988.71 595.83L988.71 595.83L989.47 593.34L989.90 593.46Q990.82 593.70 991.38 593.43Q991.95 593.15 991.91 592.48L991.91 592.48L991.90 592.02L987.83 581.08L991.42 581.08L993.05 586.42Q993.27 587.13 993.41 587.83Q993.56 588.53 993.70 589.27L993.70 589.27Q993.86 588.52 994.05 587.82Q994.23 587.12 994.46 586.42L994.46 586.42L996.21 581.08L999.76 581.08L995.18 593.15Q994.68 594.48 993.70 595.32Q992.71 596.16 990.88 596.16L990.88 596.16Q989.56 596.16 988.71 595.83ZM1004.51 592L1001.10 592L1001.10 581.08L1004.23 581.08L1004.39 583.25Q1004.84 582.02 1005.69 581.48Q1006.55 580.94 1007.54 580.94L1007.54 580.94Q1008.57 580.94 1009.26 581.53Q1009.95 582.13 1010.35 583.46L1010.35 583.46Q1010.85 582.12 1011.82 581.53Q1012.79 580.94 1013.89 580.94L1013.89 580.94Q1015.43 580.94 1016.41 581.92Q1017.39 582.91 1017.39 584.64L1017.39 584.64L1017.39 592L1013.98 592L1013.98 585.41Q1013.98 584.58 1013.55 584.15Q1013.12 583.72 1012.45 583.72L1012.45 583.72Q1011.72 583.72 1011.30 584.19Q1010.88 584.67 1010.88 585.45L1010.88 585.45L1010.88 592L1007.61 592L1007.61 585.36Q1007.61 584.61 1007.19 584.16Q1006.76 583.72 1006.09 583.72L1006.09 583.72Q1005.40 583.72 1004.95 584.19Q1004.51 584.66 1004.51 585.52L1004.51 585.52L1004.51 592ZM1024.71 592.21L1024.71 592.21Q1023.00 592.21 1021.77 591.50Q1020.54 590.79 1019.88 589.52Q1019.22 588.26 1019.22 586.58L1019.22 586.58Q1019.22 584.90 1019.88 583.63Q1020.54 582.36 1021.77 581.65Q1023.00 580.95 1024.71 580.95L1024.71 580.95Q1026.42 580.95 1027.65 581.65Q1028.87 582.36 1029.53 583.63Q1030.19 584.90 1030.19 586.58L1030.19 586.58Q1030.19 588.26 1029.53 589.52Q1028.87 590.79 1027.65 591.50Q1026.42 592.21 1024.71 592.21ZM1024.71 589.60L1024.71 589.60Q1025.69 589.60 1026.21 588.76Q1026.72 587.93 1026.72 586.56L1026.72 586.56Q1026.72 585.19 1026.21 584.37Q1025.69 583.55 1024.71 583.55L1024.71 583.55Q1023.74 583.55 1023.22 584.37Q1022.70 585.19 1022.70 586.56L1022.70 586.56Q1022.70 587.93 1023.22 588.76Q1023.74 589.60 1024.71 589.60ZM1035.44 592L1032.03 592L1032.03 581.08L1035.34 581.08L1035.34 583.07L1035.46 583.07Q1035.75 582 1036.43 581.47Q1037.11 580.95 1038.00 580.95L1038.00 580.95Q1038.50 580.95 1038.97 581.06L1038.97 581.06L1038.97 584.03Q1038.73 583.94 1038.33 583.90Q1037.94 583.86 1037.62 583.86L1037.62 583.86Q1036.68 583.86 1036.06 584.46Q1035.44 585.07 1035.44 586.04L1035.44 586.04L1035.44 592ZM1043.83 592L1040.43 592L1040.43 581.08L1043.74 581.08L1043.74 583.07L1043.85 583.07Q1044.15 582 1044.83 581.47Q1045.50 580.95 1046.40 580.95L1046.40 580.95Q1046.90 580.95 1047.37 581.06L1047.37 581.06L1047.37 584.03Q1047.13 583.94 1046.73 583.90Q1046.33 583.86 1046.02 583.86L1046.02 583.86Q1045.07 583.86 1044.45 584.46Q1043.83 585.07 1043.83 586.04L1043.83 586.04L1043.83 592ZM1053.89 592.21L1053.89 592.21Q1052.18 592.21 1050.95 591.50Q1049.72 590.79 1049.06 589.52Q1048.40 588.26 1048.40 586.58L1048.40 586.58Q1048.40 584.90 1049.06 583.63Q1049.72 582.36 1050.95 581.65Q1052.18 580.95 1053.89 580.95L1053.89 580.95Q1055.60 580.95 1056.83 581.65Q1058.05 582.36 1058.71 583.63Q1059.37 584.90 1059.37 586.58L1059.37 586.58Q1059.37 588.26 1058.71 589.52Q1058.05 590.79 1056.83 591.50Q1055.60 592.21 1053.89 592.21ZM1053.89 589.60L1053.89 589.60Q1054.87 589.60 1055.39 588.76Q1055.90 587.93 1055.90 586.56L1055.90 586.56Q1055.90 585.19 1055.39 584.37Q1054.87 583.55 1053.89 583.55L1053.89 583.55Q1052.92 583.55 1052.40 584.37Q1051.88 585.19 1051.88 586.56L1051.88 586.56Q1051.88 587.93 1052.40 588.76Q1052.92 589.60 1053.89 589.60ZM1066.89 592L1063.41 592L1060.23 581.08L1063.79 581.08L1064.60 584.82Q1064.78 585.75 1065.00 586.79Q1065.21 587.82 1065.42 589.00L1065.42 589.00Q1065.63 587.83 1065.88 586.79Q1066.12 585.75 1066.33 584.82L1066.33 584.82L1067.20 581.08L1070.23 581.08L1071.07 584.82Q1071.28 585.76 1071.52 586.79Q1071.76 587.83 1071.99 589.02L1071.99 589.02Q1072.17 587.84 1072.38 586.80Q1072.58 585.76 1072.78 584.82L1072.78 584.82L1073.57 581.08L1077.19 581.08L1073.98 592L1070.50 592L1069.37 588.08Q1069.21 587.49 1069.03 586.67Q1068.86 585.86 1068.70 585.07L1068.70 585.07Q1068.53 585.86 1068.37 586.67Q1068.20 587.49 1068.02 588.08L1068.02 588.08L1066.89 592ZM1082.22 576.77L1085.13 576.77L1080.45 594.19L1077.54 594.19L1082.22 576.77ZM1089.52 592.20L1089.52 592.20Q1087.95 592.20 1086.93 591.39Q1085.92 590.59 1085.92 588.97L1085.92 588.97Q1085.92 587.76 1086.48 587.05Q1087.04 586.34 1087.96 585.99Q1088.88 585.65 1089.99 585.55L1089.99 585.55Q1091.37 585.44 1091.97 585.27Q1092.57 585.10 1092.57 584.59L1092.57 584.59L1092.57 584.55Q1092.57 583.98 1092.18 583.67Q1091.78 583.37 1091.09 583.37L1091.09 583.37Q1090.38 583.37 1089.92 583.67Q1089.46 583.97 1089.32 584.49L1089.32 584.49L1086.24 584.09Q1086.56 582.69 1087.81 581.82Q1089.07 580.95 1091.12 580.95L1091.12 580.95Q1092.48 580.95 1093.58 581.37Q1094.67 581.79 1095.32 582.60Q1095.97 583.42 1095.97 584.59L1095.97 584.59L1095.97 592L1092.77 592L1092.77 590.47L1092.68 590.47Q1091.77 592.20 1089.52 592.20ZM1090.55 589.94L1090.55 589.94Q1091.41 589.94 1092.01 589.43Q1092.60 588.92 1092.60 588.11L1092.60 588.11L1092.60 587.07Q1092.31 587.22 1091.75 587.33Q1091.20 587.44 1090.72 587.52L1090.72 587.52Q1089.15 587.75 1089.15 588.82L1089.15 588.82Q1089.15 589.36 1089.54 589.65Q1089.94 589.94 1090.55 589.94ZM1098.23 577.45L1101.64 577.45L1101.64 592L1098.23 592L1098.23 577.45ZM1110.45 592.16L1110.45 592.16Q1109.20 592.16 1108.45 591.57Q1107.70 590.97 1107.38 590.23L1107.38 590.23L1107.26 590.23L1107.26 592L1103.89 592L1103.89 577.45L1107.30 577.45L1107.30 582.96L1107.38 582.96Q1107.58 582.47 1107.97 582.00Q1108.37 581.54 1108.98 581.24Q1109.60 580.95 1110.46 580.95L1110.46 580.95Q1111.62 580.95 1112.61 581.55Q1113.60 582.16 1114.21 583.40Q1114.82 584.64 1114.82 586.55L1114.82 586.55Q1114.82 588.41 1114.23 589.65Q1113.64 590.90 1112.65 591.53Q1111.66 592.16 1110.45 592.16ZM1109.28 589.50L1109.28 589.50Q1110.27 589.50 1110.79 588.69Q1111.31 587.88 1111.31 586.55L1111.31 586.55Q1111.31 585.22 1110.79 584.42Q1110.27 583.61 1109.28 583.61L1109.28 583.61Q1108.31 583.61 1107.76 584.40Q1107.22 585.19 1107.22 586.55L1107.22 586.55Q1107.22 587.89 1107.76 588.69Q1108.31 589.50 1109.28 589.50ZM1120.44 592.14L1120.44 592.14Q1118.72 592.14 1117.68 591.01Q1116.65 589.89 1116.65 588.04L1116.65 588.04L1116.65 581.08L1120.05 581.08L1120.05 587.37Q1120.05 588.29 1120.53 588.81Q1121.00 589.33 1121.83 589.33L1121.83 589.33Q1122.67 589.33 1123.18 588.80Q1123.70 588.27 1123.70 587.31L1123.70 587.31L1123.70 581.08L1127.11 581.08L1127.11 592L1123.90 592L1123.85 589.64Q1123.41 590.78 1122.58 591.46Q1121.75 592.14 1120.44 592.14ZM1132.76 592L1129.35 592L1129.35 581.08L1132.49 581.08L1132.64 583.25Q1133.09 582.02 1133.95 581.48Q1134.80 580.94 1135.79 580.94L1135.79 580.94Q1136.82 580.94 1137.51 581.53Q1138.20 582.13 1138.60 583.46L1138.60 583.46Q1139.10 582.12 1140.07 581.53Q1141.04 580.94 1142.14 580.94L1142.14 580.94Q1143.68 580.94 1144.66 581.92Q1145.64 582.91 1145.64 584.64L1145.64 584.64L1145.64 592L1142.23 592L1142.23 585.41Q1142.23 584.58 1141.80 584.15Q1141.37 583.72 1140.70 583.72L1140.70 583.72Q1139.98 583.72 1139.56 584.19Q1139.14 584.67 1139.14 585.45L1139.14 585.45L1139.14 592L1135.87 592L1135.87 585.36Q1135.87 584.61 1135.44 584.16Q1135.02 583.72 1134.34 583.72L1134.34 583.72Q1133.65 583.72 1133.20 584.19Q1132.76 584.66 1132.76 585.52L1132.76 585.52L1132.76 592ZM1148.13 584.79L1154.84 584.79L1154.84 587.42L1148.13 587.42L1148.13 584.79ZM1160.38 592.20L1160.38 592.20Q1158.80 592.20 1157.79 591.39Q1156.78 590.59 1156.78 588.97L1156.78 588.97Q1156.78 587.76 1157.34 587.05Q1157.90 586.34 1158.82 585.99Q1159.74 585.65 1160.85 585.55L1160.85 585.55Q1162.23 585.44 1162.83 585.27Q1163.43 585.10 1163.43 584.59L1163.43 584.59L1163.43 584.55Q1163.43 583.98 1163.04 583.67Q1162.64 583.37 1161.95 583.37L1161.95 583.37Q1161.24 583.37 1160.78 583.67Q1160.32 583.97 1160.18 584.49L1160.18 584.49L1157.10 584.09Q1157.42 582.69 1158.67 581.82Q1159.93 580.95 1161.98 580.95L1161.98 580.95Q1163.34 580.95 1164.43 581.37Q1165.53 581.79 1166.18 582.60Q1166.83 583.42 1166.83 584.59L1166.83 584.59L1166.83 592L1163.63 592L1163.63 590.47L1163.54 590.47Q1162.63 592.20 1160.38 592.20ZM1161.41 589.94L1161.41 589.94Q1162.27 589.94 1162.87 589.43Q1163.46 588.92 1163.46 588.11L1163.46 588.11L1163.46 587.07Q1163.17 587.22 1162.61 587.33Q1162.06 587.44 1161.58 587.52L1161.58 587.52Q1160.01 587.75 1160.01 588.82L1160.01 588.82Q1160.01 589.36 1160.40 589.65Q1160.80 589.94 1161.41 589.94ZM1172.50 592L1169.09 592L1169.09 581.08L1172.40 581.08L1172.40 583.07L1172.52 583.07Q1172.81 582 1173.49 581.47Q1174.17 580.95 1175.06 580.95L1175.06 580.95Q1175.56 580.95 1176.03 581.06L1176.03 581.06L1176.03 584.03Q1175.79 583.94 1175.39 583.90Q1175.00 583.86 1174.68 583.86L1174.68 583.86Q1173.74 583.86 1173.12 584.46Q1172.50 585.07 1172.50 586.04L1172.50 586.04L1172.50 592ZM1181.41 581.08L1183.38 581.08L1183.38 583.61L1181.41 583.61L1181.41 588.66Q1181.41 589.51 1182.28 589.51L1182.28 589.51Q1182.46 589.51 1182.77 589.47Q1183.09 589.42 1183.23 589.39L1183.23 589.39L1183.67 591.87Q1183.09 592.04 1182.55 592.10Q1182.02 592.16 1181.54 592.16L1181.54 592.16Q1179.80 592.16 1178.90 591.34Q1178.00 590.53 1178.00 588.96L1178.00 588.96L1178.00 583.61L1176.56 583.61L1176.56 581.08L1178.00 581.08L1178.00 578.48L1181.41 578.48L1181.41 581.08Z"/>
</svg>
